<svg xmlns="http://www.w3.org/2000/svg" viewBox="0 0 960 340" width="960" height="340">
  <rect x="0" y="0" width="960" height="340" fill="#FAFAF7"/>
  <rect x="0" y="0" width="960" height="340" fill="none" stroke="#DCDCD5" stroke-width="1"/>
  <path fill="#52524E" d="M90 0V698H530V625H174V390H500V317H174V0Z" transform="matrix(0.0085,0,0,-0.0085,16,22)"/>
  <path fill="#52524E" d="M84 0V67H258V631H84V698H516V631H342V67H516V0Z" transform="matrix(0.0085,0,0,-0.0085,21.1,22)"/>
  <path fill="#52524E" d="M444 93H439Q430 73 418.0 54.0Q406 35 387.5 20.5Q369 6 343.0 -3.0Q317 -12 281 -12Q167 -12 111.5 80.0Q56 172 56 344Q56 524 117.0 617.0Q178 710 305 710Q354 710 390.0 697.0Q426 684 451.5 662.0Q477 640 494.0 612.5Q511 585 522 557L450 524Q441 547 429.5 567.5Q418 588 401.5 603.5Q385 619 362.0 628.0Q339 637 308 637Q224 637 184.5 574.0Q145 511 145 406V298Q145 245 153.0 201.5Q161 158 179.5 126.0Q198 94 227.5 76.5Q257 59 300 59Q368 59 406.0 100.0Q444 141 444 206V278H297V345H522V0H444Z" transform="matrix(0.0085,0,0,-0.0085,26.2,22)"/>
  <path fill="#52524E" d="M300 -9Q259 -9 242.5 8.0Q226 25 226 51V69Q226 95 242.5 112.0Q259 129 300 129Q341 129 357.5 112.0Q374 95 374 69V51Q374 25 357.5 8.0Q341 -9 300 -9Z" transform="matrix(0.0085,0,0,-0.0085,31.3,22)"/>
  <path fill="#52524E" d="M300 -12Q236 -12 190.0 12.5Q144 37 114.0 83.0Q84 129 70.0 196.0Q56 263 56 349Q56 434 70.0 501.5Q84 569 114.0 615.0Q144 661 190.0 685.5Q236 710 300 710Q364 710 410.0 685.5Q456 661 486.0 615.0Q516 569 530.0 501.5Q544 434 544 349Q544 263 530.0 196.0Q516 129 486.0 83.0Q456 37 410.0 12.5Q364 -12 300 -12ZM300 61Q342 61 372.0 77.5Q402 94 420.5 124.0Q439 154 448.0 196.5Q457 239 457 292V406Q457 458 448.0 501.0Q439 544 420.5 574.0Q402 604 372.0 620.5Q342 637 300 637Q258 637 228.0 620.5Q198 604 179.5 574.0Q161 544 152.0 501.0Q143 458 143 406V292Q143 239 152.0 196.5Q161 154 179.5 124.0Q198 94 228.0 77.5Q258 61 300 61ZM300 290Q265 290 251.5 304.0Q238 318 238 338V360Q238 380 251.5 394.0Q265 408 300 408Q335 408 348.5 394.0Q362 380 362 360V338Q362 318 348.5 304.0Q335 290 300 290Z" transform="matrix(0.0085,0,0,-0.0085,41.5,22)"/>
  <path fill="#52524E" d="M85 0V73H285V636H278L102 472L53 525L238 698H369V73H553V0Z" transform="matrix(0.0085,0,0,-0.0085,46.6,22)"/>
  <path fill="#52524E" d="M0 267V341H600V267Z" transform="matrix(0.0085,0,0,-0.0085,56.8,22)"/>
  <path fill="#52524E" d="M298 -12Q204 -12 144.0 22.5Q84 57 45 111L106 161Q147 110 192.5 85.0Q238 60 301 60Q377 60 417.0 95.0Q457 130 457 193Q457 244 428.0 272.5Q399 301 327 313L249 326Q198 335 163.5 353.0Q129 371 108.0 396.5Q87 422 78.0 452.5Q69 483 69 516Q69 612 132.0 661.0Q195 710 302 710Q386 710 443.5 682.0Q501 654 536 603L477 552Q448 590 407.0 614.0Q366 638 301 638Q230 638 192.0 608.0Q154 578 154 518Q154 471 182.5 441.5Q211 412 285 399L360 386Q411 377 446.0 359.0Q481 341 502.5 316.0Q524 291 533.0 260.0Q542 229 542 195Q542 98 478.5 43.0Q415 -12 298 -12Z" transform="matrix(0.0085,0,0,-0.0085,67.0,22)"/>
  <path fill="#52524E" d="M163 588H156V0H80V698H199L437 110H444V698H520V0H401Z" transform="matrix(0.0085,0,0,-0.0085,72.1,22)"/>
  <path fill="#52524E" d="M481 0 422 199H177L118 0H31L245 698H356L570 0ZM304 609H295L197 272H402Z" transform="matrix(0.0085,0,0,-0.0085,77.2,22)"/>
  <path fill="#52524E" d="M90 0V698H344Q441 698 492.0 645.0Q543 592 543 497Q543 402 492.0 349.0Q441 296 344 296H174V0ZM174 369H342Q395 369 424.5 395.5Q454 422 454 471V523Q454 572 424.5 598.5Q395 625 342 625H174Z" transform="matrix(0.0085,0,0,-0.0085,82.3,22)"/>
  <path fill="#52524E" d="M298 -12Q204 -12 144.0 22.5Q84 57 45 111L106 161Q147 110 192.5 85.0Q238 60 301 60Q377 60 417.0 95.0Q457 130 457 193Q457 244 428.0 272.5Q399 301 327 313L249 326Q198 335 163.5 353.0Q129 371 108.0 396.5Q87 422 78.0 452.5Q69 483 69 516Q69 612 132.0 661.0Q195 710 302 710Q386 710 443.5 682.0Q501 654 536 603L477 552Q448 590 407.0 614.0Q366 638 301 638Q230 638 192.0 608.0Q154 578 154 518Q154 471 182.5 441.5Q211 412 285 399L360 386Q411 377 446.0 359.0Q481 341 502.5 316.0Q524 291 533.0 260.0Q542 229 542 195Q542 98 478.5 43.0Q415 -12 298 -12Z" transform="matrix(0.0085,0,0,-0.0085,87.4,22)"/>
  <path fill="#52524E" d="M436 317H164V0H80V698H164V390H436V698H520V0H436Z" transform="matrix(0.0085,0,0,-0.0085,92.5,22)"/>
  <path fill="#52524E" d="M300 -12Q236 -12 190.0 12.5Q144 37 114.0 83.0Q84 129 70.0 196.0Q56 263 56 349Q56 434 70.0 501.5Q84 569 114.0 615.0Q144 661 190.0 685.5Q236 710 300 710Q364 710 410.0 685.5Q456 661 486.0 615.0Q516 569 530.0 501.5Q544 434 544 349Q544 263 530.0 196.0Q516 129 486.0 83.0Q456 37 410.0 12.5Q364 -12 300 -12ZM300 61Q342 61 371.0 77.5Q400 94 419.0 124.0Q438 154 446.5 196.5Q455 239 455 292V406Q455 458 446.5 501.0Q438 544 419.0 574.0Q400 604 371.0 620.5Q342 637 300 637Q258 637 229.0 620.5Q200 604 181.0 574.0Q162 544 153.5 501.0Q145 458 145 406V292Q145 239 153.5 196.5Q162 154 181.0 124.0Q200 94 229.0 77.5Q258 61 300 61Z" transform="matrix(0.0085,0,0,-0.0085,97.6,22)"/>
  <path fill="#52524E" d="M342 625V0H258V625H25V698H575V625Z" transform="matrix(0.0085,0,0,-0.0085,102.7,22)"/>
  <path fill="#52524E" d="M262 62V271H62V339H262V548H338V339H538V271H338V62Z" transform="matrix(0.0085,0,0,-0.0085,112.9,22)"/>
  <path fill="#52524E" d="M95 698H290Q418 698 481.0 610.0Q544 522 544 349Q544 176 481.0 88.0Q418 0 290 0H95ZM286 73Q370 73 412.5 131.0Q455 189 455 295V403Q455 509 412.5 567.0Q370 625 286 625H179V73Z" transform="matrix(0.0085,0,0,-0.0085,123.1,22)"/>
  <path fill="#52524E" d="M84 0V67H258V631H84V698H516V631H342V67H516V0Z" transform="matrix(0.0085,0,0,-0.0085,128.2,22)"/>
  <path fill="#52524E" d="M90 0V698H530V625H174V390H500V317H174V0Z" transform="matrix(0.0085,0,0,-0.0085,133.3,22)"/>
  <path fill="#52524E" d="M90 0V698H530V625H174V390H500V317H174V0Z" transform="matrix(0.0085,0,0,-0.0085,138.4,22)"/>
  <path fill="#52524E" d="M90 0V698H520V625H174V390H508V317H174V73H520V0Z" transform="matrix(0.0085,0,0,-0.0085,148.6,22)"/>
  <path fill="#52524E" d="M163 588H156V0H80V698H199L437 110H444V698H520V0H401Z" transform="matrix(0.0085,0,0,-0.0085,153.7,22)"/>
  <path fill="#52524E" d="M444 93H439Q430 73 418.0 54.0Q406 35 387.5 20.5Q369 6 343.0 -3.0Q317 -12 281 -12Q167 -12 111.5 80.0Q56 172 56 344Q56 524 117.0 617.0Q178 710 305 710Q354 710 390.0 697.0Q426 684 451.5 662.0Q477 640 494.0 612.5Q511 585 522 557L450 524Q441 547 429.5 567.5Q418 588 401.5 603.5Q385 619 362.0 628.0Q339 637 308 637Q224 637 184.5 574.0Q145 511 145 406V298Q145 245 153.0 201.5Q161 158 179.5 126.0Q198 94 227.5 76.5Q257 59 300 59Q368 59 406.0 100.0Q444 141 444 206V278H297V345H522V0H444Z" transform="matrix(0.0085,0,0,-0.0085,158.8,22)"/>
  <path fill="#52524E" d="M84 0V67H258V631H84V698H516V631H342V67H516V0Z" transform="matrix(0.0085,0,0,-0.0085,163.9,22)"/>
  <path fill="#52524E" d="M163 588H156V0H80V698H199L437 110H444V698H520V0H401Z" transform="matrix(0.0085,0,0,-0.0085,169.0,22)"/>
  <path fill="#52524E" d="M90 0V698H520V625H174V390H508V317H174V73H520V0Z" transform="matrix(0.0085,0,0,-0.0085,174.1,22)"/>
  <line x1="0" y1="30" x2="960" y2="30" stroke="#DCDCD5" stroke-width="1"/>
  <rect x="22" y="123" width="100" height="64" fill="#F2F2EE" stroke="#111110" stroke-width="1"/>
  <path fill="#111110" d="M174 0H90V698H344Q441 698 492.0 645.0Q543 592 543 497Q543 412 499.0 361.0Q455 310 371 302L549 0H455L285 298H174ZM342 369Q395 369 424.5 395.5Q454 422 454 471V523Q454 572 424.5 598.5Q395 625 342 625H174V369Z" transform="matrix(0.0085,0,0,-0.0085,30,138)"/>
  <path fill="#111110" d="M300 -12Q236 -12 190.0 12.5Q144 37 114.0 83.0Q84 129 70.0 196.0Q56 263 56 349Q56 434 70.0 501.5Q84 569 114.0 615.0Q144 661 190.0 685.5Q236 710 300 710Q364 710 410.0 685.5Q456 661 486.0 615.0Q516 569 530.0 501.5Q544 434 544 349Q544 263 530.0 196.0Q516 129 486.0 83.0Q456 37 410.0 12.5Q364 -12 300 -12ZM300 61Q342 61 371.0 77.5Q400 94 419.0 124.0Q438 154 446.5 196.5Q455 239 455 292V406Q455 458 446.5 501.0Q438 544 419.0 574.0Q400 604 371.0 620.5Q342 637 300 637Q258 637 229.0 620.5Q200 604 181.0 574.0Q162 544 153.5 501.0Q145 458 145 406V292Q145 239 153.5 196.5Q162 154 181.0 124.0Q200 94 229.0 77.5Q258 61 300 61Z" transform="matrix(0.0085,0,0,-0.0085,35.1,138)"/>
  <path fill="#111110" d="M300 -12Q236 -12 190.0 12.5Q144 37 114.0 83.0Q84 129 70.0 196.0Q56 263 56 349Q56 434 70.0 501.5Q84 569 114.0 615.0Q144 661 190.0 685.5Q236 710 300 710Q364 710 410.0 685.5Q456 661 486.0 615.0Q516 569 530.0 501.5Q544 434 544 349Q544 263 530.0 196.0Q516 129 486.0 83.0Q456 37 410.0 12.5Q364 -12 300 -12ZM300 61Q342 61 371.0 77.5Q400 94 419.0 124.0Q438 154 446.5 196.5Q455 239 455 292V406Q455 458 446.5 501.0Q438 544 419.0 574.0Q400 604 371.0 620.5Q342 637 300 637Q258 637 229.0 620.5Q200 604 181.0 574.0Q162 544 153.5 501.0Q145 458 145 406V292Q145 239 153.5 196.5Q162 154 181.0 124.0Q200 94 229.0 77.5Q258 61 300 61Z" transform="matrix(0.0085,0,0,-0.0085,40.2,138)"/>
  <path fill="#111110" d="M342 625V0H258V625H25V698H575V625Z" transform="matrix(0.0085,0,0,-0.0085,45.3,138)"/>
  <path fill="#111110" d="M298 -12Q204 -12 144.0 22.5Q84 57 45 111L106 161Q147 110 192.5 85.0Q238 60 301 60Q377 60 417.0 95.0Q457 130 457 193Q457 244 428.0 272.5Q399 301 327 313L249 326Q198 335 163.5 353.0Q129 371 108.0 396.5Q87 422 78.0 452.5Q69 483 69 516Q69 612 132.0 661.0Q195 710 302 710Q386 710 443.5 682.0Q501 654 536 603L477 552Q448 590 407.0 614.0Q366 638 301 638Q230 638 192.0 608.0Q154 578 154 518Q154 471 182.5 441.5Q211 412 285 399L360 386Q411 377 446.0 359.0Q481 341 502.5 316.0Q524 291 533.0 260.0Q542 229 542 195Q542 98 478.5 43.0Q415 -12 298 -12Z" transform="matrix(0.0085,0,0,-0.0085,50.4,138)"/>
  <path fill="#52524E" d="M30 516H101L160 70H169L257 516H345L433 70H442L501 516H570L491 0H387L305 432H297L213 0H109Z" transform="matrix(0.0075,0,0,-0.0075,30,153)"/>
  <path fill="#52524E" d="M495 0Q448 0 428.0 24.0Q408 48 403 84H398Q381 39 343.5 13.5Q306 -12 243 -12Q162 -12 114.0 30.0Q66 72 66 145Q66 217 118.5 256.0Q171 295 288 295H398V346Q398 403 366.0 431.5Q334 460 275 460Q223 460 190.0 439.5Q157 419 137 384L83 424Q93 444 110.0 463.0Q127 482 152.0 496.5Q177 511 209.0 519.5Q241 528 280 528Q371 528 424.5 482.0Q478 436 478 354V70H550V0ZM257 55Q288 55 313.5 62.5Q339 70 358.0 82.5Q377 95 387.5 112.5Q398 130 398 150V235H288Q216 235 183.0 215.0Q150 195 150 157V136Q150 96 178.5 75.5Q207 55 257 55Z" transform="matrix(0.0075,0,0,-0.0075,34.5,153)"/>
  <path fill="#52524E" d="M325 0Q266 0 238.5 33.0Q211 66 211 118V448H39V516H167Q193 516 203.5 526.5Q214 537 214 563V698H291V516H526V448H291V68H526V0Z" transform="matrix(0.0075,0,0,-0.0075,39.0,153)"/>
  <path fill="#52524E" d="M318 -12Q262 -12 218.5 7.5Q175 27 145.0 62.0Q115 97 99.5 147.0Q84 197 84 258Q84 319 100.0 369.0Q116 419 146.0 454.5Q176 490 219.0 509.0Q262 528 317 528Q392 528 439.0 495.0Q486 462 508 409L444 375Q430 415 397.5 437.0Q365 459 317 459Q282 459 254.5 447.5Q227 436 208.0 415.0Q189 394 179.5 365.0Q170 336 170 302V214Q170 180 179.5 151.0Q189 122 208.0 101.0Q227 80 255.0 68.5Q283 57 319 57Q371 57 405.0 81.0Q439 105 459 147L516 108Q493 56 444.5 22.0Q396 -12 318 -12Z" transform="matrix(0.0075,0,0,-0.0075,43.5,153)"/>
  <path fill="#52524E" d="M98 740H178V432H182Q190 451 202.0 468.5Q214 486 231.5 499.0Q249 512 273.0 520.0Q297 528 329 528Q410 528 459.0 476.5Q508 425 508 331V0H428V317Q428 388 397.0 422.5Q366 457 306 457Q282 457 259.0 451.0Q236 445 218.0 433.0Q200 421 189.0 402.0Q178 383 178 358V0H98Z" transform="matrix(0.0075,0,0,-0.0075,48.0,153)"/>
  <path fill="#52524E" d="M300 -9Q259 -9 242.5 8.0Q226 25 226 51V69Q226 95 242.5 112.0Q259 129 300 129Q341 129 357.5 112.0Q374 95 374 69V51Q374 25 357.5 8.0Q341 -9 300 -9Z" transform="matrix(0.0075,0,0,-0.0075,52.5,153)"/>
  <path fill="#52524E" d="M77 68H228V448H77V516H308V386H313Q329 447 373.5 481.5Q418 516 487 516H559V436H462Q393 436 350.5 396.0Q308 356 308 291V68H508V0H77Z" transform="matrix(0.0075,0,0,-0.0075,57.0,153)"/>
  <path fill="#52524E" d="M300 -12Q246 -12 202.5 7.0Q159 26 128.5 61.5Q98 97 82.0 146.5Q66 196 66 258Q66 319 82.0 369.0Q98 419 128.5 454.5Q159 490 202.5 509.0Q246 528 300 528Q354 528 397.5 509.0Q441 490 471.5 454.5Q502 419 518.0 369.0Q534 319 534 258Q534 196 518.0 146.5Q502 97 471.5 61.5Q441 26 397.5 7.0Q354 -12 300 -12ZM300 57Q367 57 408.0 97.0Q449 137 449 221V295Q449 379 408.0 419.0Q367 459 300 459Q233 459 192.0 419.0Q151 379 151 295V221Q151 137 192.0 97.0Q233 57 300 57Z" transform="matrix(0.0075,0,0,-0.0075,61.5,153)"/>
  <path fill="#52524E" d="M300 -12Q246 -12 202.5 7.0Q159 26 128.5 61.5Q98 97 82.0 146.5Q66 196 66 258Q66 319 82.0 369.0Q98 419 128.5 454.5Q159 490 202.5 509.0Q246 528 300 528Q354 528 397.5 509.0Q441 490 471.5 454.5Q502 419 518.0 369.0Q534 319 534 258Q534 196 518.0 146.5Q502 97 471.5 61.5Q441 26 397.5 7.0Q354 -12 300 -12ZM300 57Q367 57 408.0 97.0Q449 137 449 221V295Q449 379 408.0 419.0Q367 459 300 459Q233 459 192.0 419.0Q151 379 151 295V221Q151 137 192.0 97.0Q233 57 300 57Z" transform="matrix(0.0075,0,0,-0.0075,66.0,153)"/>
  <path fill="#52524E" d="M325 0Q266 0 238.5 33.0Q211 66 211 118V448H39V516H167Q193 516 203.5 526.5Q214 537 214 563V698H291V516H526V448H291V68H526V0Z" transform="matrix(0.0075,0,0,-0.0075,70.5,153)"/>
  <path fill="#52524E" d="M306 -12Q225 -12 166.5 15.5Q108 43 67 89L121 136Q158 97 202.0 76.0Q246 55 308 55Q368 55 406.5 76.5Q445 98 445 144Q445 164 437.5 177.5Q430 191 417.0 199.0Q404 207 388.0 211.5Q372 216 354 219L273 231Q246 235 214.5 242.0Q183 249 157.0 264.5Q131 280 113.5 306.0Q96 332 96 374Q96 413 111.5 441.5Q127 470 155.0 489.5Q183 509 221.0 518.5Q259 528 304 528Q374 528 425.5 506.0Q477 484 514 445L462 396Q453 407 439.5 418.5Q426 430 406.5 439.5Q387 449 361.0 455.0Q335 461 301 461Q240 461 207.5 440.0Q175 419 175 379Q175 359 182.5 345.5Q190 332 203.0 324.0Q216 316 232.5 311.5Q249 307 266 304L347 292Q375 288 406.0 281.0Q437 274 463.0 258.5Q489 243 506.5 217.0Q524 191 524 149Q524 72 464.5 30.0Q405 -12 306 -12Z" transform="matrix(0.0075,0,0,-0.0075,75.0,153)"/>
  <path fill="#52524E" d="M225 -138V760H505V698H294V-76H505V-138Z" transform="matrix(0.0075,0,0,-0.0075,79.5,153)"/>
  <path fill="#52524E" d="M375 760V-138H95V-76H306V698H95V760Z" transform="matrix(0.0075,0,0,-0.0075,84.0,153)"/>
  <path fill="#52524E" d="M323 -12Q195 -12 132.5 81.0Q70 174 70 349Q70 524 132.5 617.0Q195 710 323 710Q371 710 406.0 697.0Q441 684 466.0 662.0Q491 640 508.0 612.5Q525 585 538 557L466 524Q457 547 445.0 567.5Q433 588 416.5 603.5Q400 619 377.5 628.0Q355 637 323 637Q240 637 199.5 574.0Q159 511 159 406V292Q159 187 199.5 124.0Q240 61 323 61Q355 61 377.5 70.0Q400 79 416.5 94.5Q433 110 445.0 130.5Q457 151 466 174L538 141Q525 112 508.0 85.0Q491 58 466.0 36.0Q441 14 406.0 1.0Q371 -12 323 -12Z" transform="matrix(0.0075,0,0,-0.0075,30,164)"/>
  <path fill="#52524E" d="M90 0 35 698H110L139 298L154 87H162L254 516H348L440 87H448L463 298L492 698H565L510 0H389L304 417H296L211 0Z" transform="matrix(0.0075,0,0,-0.0075,34.5,164)"/>
  <path fill="#52524E" d="M95 698H290Q418 698 481.0 610.0Q544 522 544 349Q544 176 481.0 88.0Q418 0 290 0H95ZM286 73Q370 73 412.5 131.0Q455 189 455 295V403Q455 509 412.5 567.0Q370 625 286 625H179V73Z" transform="matrix(0.0075,0,0,-0.0075,39.0,164)"/>
  <path fill="#52524E" d="M425 84H421Q371 -12 262 -12Q167 -12 113.5 59.0Q60 130 60 258Q60 386 113.5 457.0Q167 528 262 528Q371 528 421 432H425V740H505V0H425ZM293 59Q320 59 344.0 66.0Q368 73 386.0 86.5Q404 100 414.5 119.5Q425 139 425 165V351Q425 377 414.5 396.5Q404 416 386.0 429.5Q368 443 344.0 450.0Q320 457 293 457Q223 457 184.5 414.5Q146 372 146 302V214Q146 144 184.5 101.5Q223 59 293 59Z" transform="matrix(0.0075,0,0,-0.0075,48.0,164)"/>
  <path fill="#52524E" d="M309 -12Q253 -12 208.5 7.0Q164 26 132.5 61.5Q101 97 84.0 146.5Q67 196 67 257Q67 319 84.5 369.0Q102 419 133.0 454.5Q164 490 207.5 509.0Q251 528 304 528Q356 528 398.5 509.0Q441 490 471.0 456.5Q501 423 517.0 377.0Q533 331 533 276V238H151V214Q151 180 162.0 151.0Q173 122 193.5 101.0Q214 80 243.5 68.5Q273 57 309 57Q361 57 399.0 81.0Q437 105 457 147L516 107Q493 55 439.5 21.5Q386 -12 309 -12ZM304 462Q271 462 243.0 450.0Q215 438 194.5 417.0Q174 396 162.5 367.5Q151 339 151 305V298H447V309Q447 343 436.5 371.0Q426 399 407.5 419.5Q389 440 362.5 451.0Q336 462 304 462Z" transform="matrix(0.0075,0,0,-0.0075,52.5,164)"/>
  <path fill="#52524E" d="M83 68H257V448H73V516H257V622Q257 674 284.5 707.0Q312 740 371 740H544V672H337V516H544V448H337V68H521V0H83Z" transform="matrix(0.0075,0,0,-0.0075,57.0,164)"/>
  <path fill="#52524E" d="M495 0Q448 0 428.0 24.0Q408 48 403 84H398Q381 39 343.5 13.5Q306 -12 243 -12Q162 -12 114.0 30.0Q66 72 66 145Q66 217 118.5 256.0Q171 295 288 295H398V346Q398 403 366.0 431.5Q334 460 275 460Q223 460 190.0 439.5Q157 419 137 384L83 424Q93 444 110.0 463.0Q127 482 152.0 496.5Q177 511 209.0 519.5Q241 528 280 528Q371 528 424.5 482.0Q478 436 478 354V70H550V0ZM257 55Q288 55 313.5 62.5Q339 70 358.0 82.5Q377 95 387.5 112.5Q398 130 398 150V235H288Q216 235 183.0 215.0Q150 195 150 157V136Q150 96 178.5 75.5Q207 55 257 55Z" transform="matrix(0.0075,0,0,-0.0075,61.5,164)"/>
  <path fill="#52524E" d="M422 84H418Q410 65 398.0 47.5Q386 30 368.5 17.0Q351 4 327.0 -4.0Q303 -12 271 -12Q190 -12 141.0 39.5Q92 91 92 185V516H172V199Q172 128 203.0 93.5Q234 59 294 59Q318 59 341.0 65.0Q364 71 382.0 83.0Q400 95 411.0 113.5Q422 132 422 158V516H502V0H422Z" transform="matrix(0.0075,0,0,-0.0075,66.0,164)"/>
  <path fill="#52524E" d="M80 68H260V672H80V740H340V68H520V0H80Z" transform="matrix(0.0075,0,0,-0.0075,70.5,164)"/>
  <path fill="#52524E" d="M325 0Q266 0 238.5 33.0Q211 66 211 118V448H39V516H167Q193 516 203.5 526.5Q214 537 214 563V698H291V516H526V448H291V68H526V0Z" transform="matrix(0.0075,0,0,-0.0075,75.0,164)"/>
  <rect x="158" y="123" width="140" height="64" fill="#F2F2EE" stroke="#111110" stroke-width="1"/>
  <path fill="#111110" d="M298 -12Q204 -12 144.0 22.5Q84 57 45 111L106 161Q147 110 192.5 85.0Q238 60 301 60Q377 60 417.0 95.0Q457 130 457 193Q457 244 428.0 272.5Q399 301 327 313L249 326Q198 335 163.5 353.0Q129 371 108.0 396.5Q87 422 78.0 452.5Q69 483 69 516Q69 612 132.0 661.0Q195 710 302 710Q386 710 443.5 682.0Q501 654 536 603L477 552Q448 590 407.0 614.0Q366 638 301 638Q230 638 192.0 608.0Q154 578 154 518Q154 471 182.5 441.5Q211 412 285 399L360 386Q411 377 446.0 359.0Q481 341 502.5 316.0Q524 291 533.0 260.0Q542 229 542 195Q542 98 478.5 43.0Q415 -12 298 -12Z" transform="matrix(0.0085,0,0,-0.0085,166,138)"/>
  <path fill="#111110" d="M163 588H156V0H80V698H199L437 110H444V698H520V0H401Z" transform="matrix(0.0085,0,0,-0.0085,171.1,138)"/>
  <path fill="#111110" d="M481 0 422 199H177L118 0H31L245 698H356L570 0ZM304 609H295L197 272H402Z" transform="matrix(0.0085,0,0,-0.0085,176.2,138)"/>
  <path fill="#111110" d="M90 0V698H344Q441 698 492.0 645.0Q543 592 543 497Q543 402 492.0 349.0Q441 296 344 296H174V0ZM174 369H342Q395 369 424.5 395.5Q454 422 454 471V523Q454 572 424.5 598.5Q395 625 342 625H174Z" transform="matrix(0.0085,0,0,-0.0085,181.3,138)"/>
  <path fill="#111110" d="M298 -12Q204 -12 144.0 22.5Q84 57 45 111L106 161Q147 110 192.5 85.0Q238 60 301 60Q377 60 417.0 95.0Q457 130 457 193Q457 244 428.0 272.5Q399 301 327 313L249 326Q198 335 163.5 353.0Q129 371 108.0 396.5Q87 422 78.0 452.5Q69 483 69 516Q69 612 132.0 661.0Q195 710 302 710Q386 710 443.5 682.0Q501 654 536 603L477 552Q448 590 407.0 614.0Q366 638 301 638Q230 638 192.0 608.0Q154 578 154 518Q154 471 182.5 441.5Q211 412 285 399L360 386Q411 377 446.0 359.0Q481 341 502.5 316.0Q524 291 533.0 260.0Q542 229 542 195Q542 98 478.5 43.0Q415 -12 298 -12Z" transform="matrix(0.0085,0,0,-0.0085,186.4,138)"/>
  <path fill="#111110" d="M436 317H164V0H80V698H164V390H436V698H520V0H436Z" transform="matrix(0.0085,0,0,-0.0085,191.5,138)"/>
  <path fill="#111110" d="M300 -12Q236 -12 190.0 12.5Q144 37 114.0 83.0Q84 129 70.0 196.0Q56 263 56 349Q56 434 70.0 501.5Q84 569 114.0 615.0Q144 661 190.0 685.5Q236 710 300 710Q364 710 410.0 685.5Q456 661 486.0 615.0Q516 569 530.0 501.5Q544 434 544 349Q544 263 530.0 196.0Q516 129 486.0 83.0Q456 37 410.0 12.5Q364 -12 300 -12ZM300 61Q342 61 371.0 77.5Q400 94 419.0 124.0Q438 154 446.5 196.5Q455 239 455 292V406Q455 458 446.5 501.0Q438 544 419.0 574.0Q400 604 371.0 620.5Q342 637 300 637Q258 637 229.0 620.5Q200 604 181.0 574.0Q162 544 153.5 501.0Q145 458 145 406V292Q145 239 153.5 196.5Q162 154 181.0 124.0Q200 94 229.0 77.5Q258 61 300 61Z" transform="matrix(0.0085,0,0,-0.0085,196.6,138)"/>
  <path fill="#111110" d="M342 625V0H258V625H25V698H575V625Z" transform="matrix(0.0085,0,0,-0.0085,201.7,138)"/>
  <path fill="#111110" d="M90 0V698H520V625H174V390H508V317H174V73H520V0Z" transform="matrix(0.0085,0,0,-0.0085,166,150)"/>
  <path fill="#111110" d="M163 588H156V0H80V698H199L437 110H444V698H520V0H401Z" transform="matrix(0.0085,0,0,-0.0085,171.1,150)"/>
  <path fill="#111110" d="M444 93H439Q430 73 418.0 54.0Q406 35 387.5 20.5Q369 6 343.0 -3.0Q317 -12 281 -12Q167 -12 111.5 80.0Q56 172 56 344Q56 524 117.0 617.0Q178 710 305 710Q354 710 390.0 697.0Q426 684 451.5 662.0Q477 640 494.0 612.5Q511 585 522 557L450 524Q441 547 429.5 567.5Q418 588 401.5 603.5Q385 619 362.0 628.0Q339 637 308 637Q224 637 184.5 574.0Q145 511 145 406V298Q145 245 153.0 201.5Q161 158 179.5 126.0Q198 94 227.5 76.5Q257 59 300 59Q368 59 406.0 100.0Q444 141 444 206V278H297V345H522V0H444Z" transform="matrix(0.0085,0,0,-0.0085,176.2,150)"/>
  <path fill="#111110" d="M84 0V67H258V631H84V698H516V631H342V67H516V0Z" transform="matrix(0.0085,0,0,-0.0085,181.3,150)"/>
  <path fill="#111110" d="M163 588H156V0H80V698H199L437 110H444V698H520V0H401Z" transform="matrix(0.0085,0,0,-0.0085,186.4,150)"/>
  <path fill="#111110" d="M90 0V698H520V625H174V390H508V317H174V73H520V0Z" transform="matrix(0.0085,0,0,-0.0085,191.5,150)"/>
  <path fill="#52524E" d="M298 -12Q204 -12 144.0 22.5Q84 57 45 111L106 161Q147 110 192.5 85.0Q238 60 301 60Q377 60 417.0 95.0Q457 130 457 193Q457 244 428.0 272.5Q399 301 327 313L249 326Q198 335 163.5 353.0Q129 371 108.0 396.5Q87 422 78.0 452.5Q69 483 69 516Q69 612 132.0 661.0Q195 710 302 710Q386 710 443.5 682.0Q501 654 536 603L477 552Q448 590 407.0 614.0Q366 638 301 638Q230 638 192.0 608.0Q154 578 154 518Q154 471 182.5 441.5Q211 412 285 399L360 386Q411 377 446.0 359.0Q481 341 502.5 316.0Q524 291 533.0 260.0Q542 229 542 195Q542 98 478.5 43.0Q415 -12 298 -12Z" transform="matrix(0.0075,0,0,-0.0075,166,165)"/>
  <path fill="#52524E" d="M436 317H164V0H80V698H164V390H436V698H520V0H436Z" transform="matrix(0.0075,0,0,-0.0075,170.5,165)"/>
  <path fill="#52524E" d="M481 0 422 199H177L118 0H31L245 698H356L570 0ZM304 609H295L197 272H402Z" transform="matrix(0.0075,0,0,-0.0075,175.0,165)"/>
  <path fill="#52524E" d="M155 262V346H445V262Z" transform="matrix(0.0075,0,0,-0.0075,179.5,165)"/>
  <path fill="#52524E" d="M537 0H71V86L304 296Q355 342 388.0 390.5Q421 439 421 493V505Q421 568 388.0 602.5Q355 637 290 637Q226 637 191.5 604.5Q157 572 140 518L65 546Q75 577 92.5 606.5Q110 636 137.0 659.0Q164 682 202.5 696.0Q241 710 292 710Q344 710 384.5 695.0Q425 680 452.5 653.0Q480 626 494.5 589.0Q509 552 509 508Q509 468 497.5 433.0Q486 398 465.5 366.0Q445 334 416.5 303.5Q388 273 353 243L158 73H537Z" transform="matrix(0.0075,0,0,-0.0075,184.0,165)"/>
  <path fill="#52524E" d="M501 625H189L169 358H176Q202 393 234.0 413.5Q266 434 322 434Q368 434 406.5 419.5Q445 405 473.0 377.0Q501 349 517.0 309.5Q533 270 533 219Q533 168 517.0 125.5Q501 83 470.0 52.5Q439 22 395.0 5.0Q351 -12 295 -12Q251 -12 216.5 -2.0Q182 8 155.5 25.0Q129 42 109.0 63.0Q89 84 73 107L136 155Q150 134 164.5 117.0Q179 100 198.0 87.5Q217 75 241.0 68.0Q265 61 297 61Q369 61 407.5 100.0Q446 139 446 208V216Q446 285 407.0 324.0Q368 363 295 363Q245 363 217.5 346.0Q190 329 167 304L96 314L121 698H501Z" transform="matrix(0.0075,0,0,-0.0075,188.5,165)"/>
  <path fill="#52524E" d="M301 -12Q246 -12 202.0 6.5Q158 25 127.5 59.5Q97 94 80.5 144.0Q64 194 64 256Q64 334 87.5 402.5Q111 471 147.5 527.5Q184 584 229.0 627.5Q274 671 317 698H425Q368 657 323.5 618.0Q279 579 245.0 536.5Q211 494 188.0 445.5Q165 397 150 336L155 334Q180 377 221.0 405.5Q262 434 327 434Q373 434 411.0 419.0Q449 404 477.0 376.0Q505 348 520.5 308.0Q536 268 536 219Q536 168 519.0 125.5Q502 83 471.5 52.5Q441 22 397.5 5.0Q354 -12 301 -12ZM300 59Q372 59 411.5 98.0Q451 137 451 208V216Q451 287 411.5 326.0Q372 365 300 365Q228 365 188.5 326.0Q149 287 149 216V208Q149 137 188.5 98.0Q228 59 300 59Z" transform="matrix(0.0075,0,0,-0.0075,193.0,165)"/>
  <path fill="#52524E" d="M95 740H175V432H179Q229 528 338 528Q433 528 486.5 457.0Q540 386 540 258Q540 130 486.5 59.0Q433 -12 338 -12Q229 -12 179 84H175V0H95ZM307 59Q377 59 415.5 101.5Q454 144 454 214V302Q454 372 415.5 414.5Q377 457 307 457Q280 457 256.0 450.0Q232 443 214.0 429.5Q196 416 185.5 396.5Q175 377 175 351V165Q175 139 185.5 119.5Q196 100 214.0 86.5Q232 73 256.0 66.0Q280 59 307 59Z" transform="matrix(0.0075,0,0,-0.0075,202.0,165)"/>
  <path fill="#52524E" d="M80 68H260V672H80V740H340V68H520V0H80Z" transform="matrix(0.0075,0,0,-0.0075,206.5,165)"/>
  <path fill="#52524E" d="M300 -12Q246 -12 202.5 7.0Q159 26 128.5 61.5Q98 97 82.0 146.5Q66 196 66 258Q66 319 82.0 369.0Q98 419 128.5 454.5Q159 490 202.5 509.0Q246 528 300 528Q354 528 397.5 509.0Q441 490 471.5 454.5Q502 419 518.0 369.0Q534 319 534 258Q534 196 518.0 146.5Q502 97 471.5 61.5Q441 26 397.5 7.0Q354 -12 300 -12ZM300 57Q367 57 408.0 97.0Q449 137 449 221V295Q449 379 408.0 419.0Q367 459 300 459Q233 459 192.0 419.0Q151 379 151 295V221Q151 137 192.0 97.0Q233 57 300 57Z" transform="matrix(0.0075,0,0,-0.0075,211.0,165)"/>
  <path fill="#52524E" d="M95 740H175V432H179Q229 528 338 528Q433 528 486.5 457.0Q540 386 540 258Q540 130 486.5 59.0Q433 -12 338 -12Q229 -12 179 84H175V0H95ZM307 59Q377 59 415.5 101.5Q454 144 454 214V302Q454 372 415.5 414.5Q377 457 307 457Q280 457 256.0 450.0Q232 443 214.0 429.5Q196 416 185.5 396.5Q175 377 175 351V165Q175 139 185.5 119.5Q196 100 214.0 86.5Q232 73 256.0 66.0Q280 59 307 59Z" transform="matrix(0.0075,0,0,-0.0075,215.5,165)"/>
  <path fill="#52524E" d="M306 -12Q225 -12 166.5 15.5Q108 43 67 89L121 136Q158 97 202.0 76.0Q246 55 308 55Q368 55 406.5 76.5Q445 98 445 144Q445 164 437.5 177.5Q430 191 417.0 199.0Q404 207 388.0 211.5Q372 216 354 219L273 231Q246 235 214.5 242.0Q183 249 157.0 264.5Q131 280 113.5 306.0Q96 332 96 374Q96 413 111.5 441.5Q127 470 155.0 489.5Q183 509 221.0 518.5Q259 528 304 528Q374 528 425.5 506.0Q477 484 514 445L462 396Q453 407 439.5 418.5Q426 430 406.5 439.5Q387 449 361.0 455.0Q335 461 301 461Q240 461 207.5 440.0Q175 419 175 379Q175 359 182.5 345.5Q190 332 203.0 324.0Q216 316 232.5 311.5Q249 307 266 304L347 292Q375 288 406.0 281.0Q437 274 463.0 258.5Q489 243 506.5 217.0Q524 191 524 149Q524 72 464.5 30.0Q405 -12 306 -12Z" transform="matrix(0.0075,0,0,-0.0075,220.0,165)"/>
  <path fill="#52524E" d="M325 0Q266 0 238.5 33.0Q211 66 211 118V448H39V516H167Q193 516 203.5 526.5Q214 537 214 563V698H291V516H526V448H291V68H526V0Z" transform="matrix(0.0075,0,0,-0.0075,166,176)"/>
  <path fill="#52524E" d="M77 68H228V448H77V516H308V386H313Q329 447 373.5 481.5Q418 516 487 516H559V436H462Q393 436 350.5 396.0Q308 356 308 291V68H508V0H77Z" transform="matrix(0.0075,0,0,-0.0075,170.5,176)"/>
  <path fill="#52524E" d="M309 -12Q253 -12 208.5 7.0Q164 26 132.5 61.5Q101 97 84.0 146.5Q67 196 67 257Q67 319 84.5 369.0Q102 419 133.0 454.5Q164 490 207.5 509.0Q251 528 304 528Q356 528 398.5 509.0Q441 490 471.0 456.5Q501 423 517.0 377.0Q533 331 533 276V238H151V214Q151 180 162.0 151.0Q173 122 193.5 101.0Q214 80 243.5 68.5Q273 57 309 57Q361 57 399.0 81.0Q437 105 457 147L516 107Q493 55 439.5 21.5Q386 -12 309 -12ZM304 462Q271 462 243.0 450.0Q215 438 194.5 417.0Q174 396 162.5 367.5Q151 339 151 305V298H447V309Q447 343 436.5 371.0Q426 399 407.5 419.5Q389 440 362.5 451.0Q336 462 304 462Z" transform="matrix(0.0075,0,0,-0.0075,175.0,176)"/>
  <path fill="#52524E" d="M309 -12Q253 -12 208.5 7.0Q164 26 132.5 61.5Q101 97 84.0 146.5Q67 196 67 257Q67 319 84.5 369.0Q102 419 133.0 454.5Q164 490 207.5 509.0Q251 528 304 528Q356 528 398.5 509.0Q441 490 471.0 456.5Q501 423 517.0 377.0Q533 331 533 276V238H151V214Q151 180 162.0 151.0Q173 122 193.5 101.0Q214 80 243.5 68.5Q273 57 309 57Q361 57 399.0 81.0Q437 105 457 147L516 107Q493 55 439.5 21.5Q386 -12 309 -12ZM304 462Q271 462 243.0 450.0Q215 438 194.5 417.0Q174 396 162.5 367.5Q151 339 151 305V298H447V309Q447 343 436.5 371.0Q426 399 407.5 419.5Q389 440 362.5 451.0Q336 462 304 462Z" transform="matrix(0.0075,0,0,-0.0075,179.5,176)"/>
  <path fill="#52524E" d="M54 0V516H128V456H132Q144 486 166.0 507.0Q188 528 231 528Q276 528 298.0 505.5Q320 483 325 447H328Q342 482 368.0 505.0Q394 528 440 528Q503 528 524.5 484.0Q546 440 546 358V0H472V345Q472 411 458.5 436.5Q445 462 409 462Q377 462 357.0 441.5Q337 421 337 379V0H263V345Q263 411 249.5 436.5Q236 462 201 462Q169 462 148.5 441.5Q128 421 128 379V0Z" transform="matrix(0.0075,0,0,-0.0075,188.5,176)"/>
  <path fill="#52524E" d="M495 0Q448 0 428.0 24.0Q408 48 403 84H398Q381 39 343.5 13.5Q306 -12 243 -12Q162 -12 114.0 30.0Q66 72 66 145Q66 217 118.5 256.0Q171 295 288 295H398V346Q398 403 366.0 431.5Q334 460 275 460Q223 460 190.0 439.5Q157 419 137 384L83 424Q93 444 110.0 463.0Q127 482 152.0 496.5Q177 511 209.0 519.5Q241 528 280 528Q371 528 424.5 482.0Q478 436 478 354V70H550V0ZM257 55Q288 55 313.5 62.5Q339 70 358.0 82.5Q377 95 387.5 112.5Q398 130 398 150V235H288Q216 235 183.0 215.0Q150 195 150 157V136Q150 96 178.5 75.5Q207 55 257 55Z" transform="matrix(0.0075,0,0,-0.0075,193.0,176)"/>
  <path fill="#52524E" d="M98 0V516H178V432H182Q190 451 202.0 468.5Q214 486 231.5 499.0Q249 512 273.0 520.0Q297 528 329 528Q410 528 459.0 476.5Q508 425 508 331V0H428V317Q428 388 397.0 422.5Q366 457 306 457Q282 457 259.0 451.0Q236 445 218.0 433.0Q200 421 189.0 402.0Q178 383 178 358V0Z" transform="matrix(0.0075,0,0,-0.0075,197.5,176)"/>
  <path fill="#52524E" d="M332 630Q297 630 283.0 644.5Q269 659 269 681V697Q269 719 283.0 733.5Q297 748 332 748Q367 748 381.0 733.5Q395 719 395 697V681Q395 659 381.0 644.5Q367 630 332 630ZM106 68H292V448H106V516H372V68H546V0H106Z" transform="matrix(0.0075,0,0,-0.0075,202.0,176)"/>
  <path fill="#52524E" d="M83 68H257V448H73V516H257V622Q257 674 284.5 707.0Q312 740 371 740H544V672H337V516H544V448H337V68H521V0H83Z" transform="matrix(0.0075,0,0,-0.0075,206.5,176)"/>
  <path fill="#52524E" d="M309 -12Q253 -12 208.5 7.0Q164 26 132.5 61.5Q101 97 84.0 146.5Q67 196 67 257Q67 319 84.5 369.0Q102 419 133.0 454.5Q164 490 207.5 509.0Q251 528 304 528Q356 528 398.5 509.0Q441 490 471.0 456.5Q501 423 517.0 377.0Q533 331 533 276V238H151V214Q151 180 162.0 151.0Q173 122 193.5 101.0Q214 80 243.5 68.5Q273 57 309 57Q361 57 399.0 81.0Q437 105 457 147L516 107Q493 55 439.5 21.5Q386 -12 309 -12ZM304 462Q271 462 243.0 450.0Q215 438 194.5 417.0Q174 396 162.5 367.5Q151 339 151 305V298H447V309Q447 343 436.5 371.0Q426 399 407.5 419.5Q389 440 362.5 451.0Q336 462 304 462Z" transform="matrix(0.0075,0,0,-0.0075,211.0,176)"/>
  <path fill="#52524E" d="M306 -12Q225 -12 166.5 15.5Q108 43 67 89L121 136Q158 97 202.0 76.0Q246 55 308 55Q368 55 406.5 76.5Q445 98 445 144Q445 164 437.5 177.5Q430 191 417.0 199.0Q404 207 388.0 211.5Q372 216 354 219L273 231Q246 235 214.5 242.0Q183 249 157.0 264.5Q131 280 113.5 306.0Q96 332 96 374Q96 413 111.5 441.5Q127 470 155.0 489.5Q183 509 221.0 518.5Q259 528 304 528Q374 528 425.5 506.0Q477 484 514 445L462 396Q453 407 439.5 418.5Q426 430 406.5 439.5Q387 449 361.0 455.0Q335 461 301 461Q240 461 207.5 440.0Q175 419 175 379Q175 359 182.5 345.5Q190 332 203.0 324.0Q216 316 232.5 311.5Q249 307 266 304L347 292Q375 288 406.0 281.0Q437 274 463.0 258.5Q489 243 506.5 217.0Q524 191 524 149Q524 72 464.5 30.0Q405 -12 306 -12Z" transform="matrix(0.0075,0,0,-0.0075,215.5,176)"/>
  <path fill="#52524E" d="M325 0Q266 0 238.5 33.0Q211 66 211 118V448H39V516H167Q193 516 203.5 526.5Q214 537 214 563V698H291V516H526V448H291V68H526V0Z" transform="matrix(0.0075,0,0,-0.0075,220.0,176)"/>
  <rect x="334" y="123" width="140" height="64" fill="#F2F2EE" stroke="#111110" stroke-width="1"/>
  <path fill="#111110" d="M95 698H290Q418 698 481.0 610.0Q544 522 544 349Q544 176 481.0 88.0Q418 0 290 0H95ZM286 73Q370 73 412.5 131.0Q455 189 455 295V403Q455 509 412.5 567.0Q370 625 286 625H179V73Z" transform="matrix(0.0085,0,0,-0.0085,342,138)"/>
  <path fill="#111110" d="M84 0V67H258V631H84V698H516V631H342V67H516V0Z" transform="matrix(0.0085,0,0,-0.0085,347.1,138)"/>
  <path fill="#111110" d="M90 0V698H530V625H174V390H500V317H174V0Z" transform="matrix(0.0085,0,0,-0.0085,352.2,138)"/>
  <path fill="#111110" d="M90 0V698H530V625H174V390H500V317H174V0Z" transform="matrix(0.0085,0,0,-0.0085,357.3,138)"/>
  <path fill="#111110" d="M90 0V698H520V625H174V390H508V317H174V73H520V0Z" transform="matrix(0.0085,0,0,-0.0085,367.5,138)"/>
  <path fill="#111110" d="M163 588H156V0H80V698H199L437 110H444V698H520V0H401Z" transform="matrix(0.0085,0,0,-0.0085,372.6,138)"/>
  <path fill="#111110" d="M444 93H439Q430 73 418.0 54.0Q406 35 387.5 20.5Q369 6 343.0 -3.0Q317 -12 281 -12Q167 -12 111.5 80.0Q56 172 56 344Q56 524 117.0 617.0Q178 710 305 710Q354 710 390.0 697.0Q426 684 451.5 662.0Q477 640 494.0 612.5Q511 585 522 557L450 524Q441 547 429.5 567.5Q418 588 401.5 603.5Q385 619 362.0 628.0Q339 637 308 637Q224 637 184.5 574.0Q145 511 145 406V298Q145 245 153.0 201.5Q161 158 179.5 126.0Q198 94 227.5 76.5Q257 59 300 59Q368 59 406.0 100.0Q444 141 444 206V278H297V345H522V0H444Z" transform="matrix(0.0085,0,0,-0.0085,377.7,138)"/>
  <path fill="#111110" d="M84 0V67H258V631H84V698H516V631H342V67H516V0Z" transform="matrix(0.0085,0,0,-0.0085,382.8,138)"/>
  <path fill="#111110" d="M163 588H156V0H80V698H199L437 110H444V698H520V0H401Z" transform="matrix(0.0085,0,0,-0.0085,387.9,138)"/>
  <path fill="#111110" d="M90 0V698H520V625H174V390H508V317H174V73H520V0Z" transform="matrix(0.0085,0,0,-0.0085,393.0,138)"/>
  <path fill="#52524E" d="M318 -12Q262 -12 218.5 7.5Q175 27 145.0 62.0Q115 97 99.5 147.0Q84 197 84 258Q84 319 100.0 369.0Q116 419 146.0 454.5Q176 490 219.0 509.0Q262 528 317 528Q392 528 439.0 495.0Q486 462 508 409L444 375Q430 415 397.5 437.0Q365 459 317 459Q282 459 254.5 447.5Q227 436 208.0 415.0Q189 394 179.5 365.0Q170 336 170 302V214Q170 180 179.5 151.0Q189 122 208.0 101.0Q227 80 255.0 68.5Q283 57 319 57Q371 57 405.0 81.0Q439 105 459 147L516 108Q493 56 444.5 22.0Q396 -12 318 -12Z" transform="matrix(0.0075,0,0,-0.0075,342,153)"/>
  <path fill="#52524E" d="M98 740H178V432H182Q190 451 202.0 468.5Q214 486 231.5 499.0Q249 512 273.0 520.0Q297 528 329 528Q410 528 459.0 476.5Q508 425 508 331V0H428V317Q428 388 397.0 422.5Q366 457 306 457Q282 457 259.0 451.0Q236 445 218.0 433.0Q200 421 189.0 402.0Q178 383 178 358V0H98Z" transform="matrix(0.0075,0,0,-0.0075,346.5,153)"/>
  <path fill="#52524E" d="M495 0Q448 0 428.0 24.0Q408 48 403 84H398Q381 39 343.5 13.5Q306 -12 243 -12Q162 -12 114.0 30.0Q66 72 66 145Q66 217 118.5 256.0Q171 295 288 295H398V346Q398 403 366.0 431.5Q334 460 275 460Q223 460 190.0 439.5Q157 419 137 384L83 424Q93 444 110.0 463.0Q127 482 152.0 496.5Q177 511 209.0 519.5Q241 528 280 528Q371 528 424.5 482.0Q478 436 478 354V70H550V0ZM257 55Q288 55 313.5 62.5Q339 70 358.0 82.5Q377 95 387.5 112.5Q398 130 398 150V235H288Q216 235 183.0 215.0Q150 195 150 157V136Q150 96 178.5 75.5Q207 55 257 55Z" transform="matrix(0.0075,0,0,-0.0075,351.0,153)"/>
  <path fill="#52524E" d="M98 0V516H178V432H182Q190 451 202.0 468.5Q214 486 231.5 499.0Q249 512 273.0 520.0Q297 528 329 528Q410 528 459.0 476.5Q508 425 508 331V0H428V317Q428 388 397.0 422.5Q366 457 306 457Q282 457 259.0 451.0Q236 445 218.0 433.0Q200 421 189.0 402.0Q178 383 178 358V0Z" transform="matrix(0.0075,0,0,-0.0075,355.5,153)"/>
  <path fill="#52524E" d="M561 -59Q561 -137 496.0 -174.5Q431 -212 301 -212Q176 -212 121.5 -179.0Q67 -146 67 -84Q67 -42 89.0 -19.0Q111 4 151 15V27Q129 38 117.0 55.0Q105 72 105 98Q105 138 131.5 158.0Q158 178 198 188V192Q150 213 123.5 254.0Q97 295 97 350Q97 389 111.0 422.0Q125 455 151.5 478.5Q178 502 215.0 515.0Q252 528 297 528Q355 528 399 507V516Q399 546 413.0 566.0Q427 586 461 586H556V516H440V481Q468 457 483.0 424.0Q498 391 498 350Q498 311 483.5 278.0Q469 245 443.0 221.5Q417 198 379.5 185.0Q342 172 297 172Q284 172 272.0 173.0Q260 174 248 176Q236 174 223.0 169.5Q210 165 199.0 157.5Q188 150 181.0 140.0Q174 130 174 117Q174 94 197.0 86.5Q220 79 257 79H371Q471 79 516.0 41.5Q561 4 561 -59ZM486 -63Q486 -32 461.0 -13.5Q436 5 374 5H195Q143 -16 143 -65Q143 -99 170.0 -123.5Q197 -148 260 -148H338Q408 -148 447.0 -126.5Q486 -105 486 -63ZM297 234Q357 234 385.5 262.0Q414 290 414 336V365Q414 411 385.5 438.5Q357 466 297 466Q237 466 209.0 438.5Q181 411 181 365V336Q181 290 209.0 262.0Q237 234 297 234Z" transform="matrix(0.0075,0,0,-0.0075,360.0,153)"/>
  <path fill="#52524E" d="M309 -12Q253 -12 208.5 7.0Q164 26 132.5 61.5Q101 97 84.0 146.5Q67 196 67 257Q67 319 84.5 369.0Q102 419 133.0 454.5Q164 490 207.5 509.0Q251 528 304 528Q356 528 398.5 509.0Q441 490 471.0 456.5Q501 423 517.0 377.0Q533 331 533 276V238H151V214Q151 180 162.0 151.0Q173 122 193.5 101.0Q214 80 243.5 68.5Q273 57 309 57Q361 57 399.0 81.0Q437 105 457 147L516 107Q493 55 439.5 21.5Q386 -12 309 -12ZM304 462Q271 462 243.0 450.0Q215 438 194.5 417.0Q174 396 162.5 367.5Q151 339 151 305V298H447V309Q447 343 436.5 371.0Q426 399 407.5 419.5Q389 440 362.5 451.0Q336 462 304 462Z" transform="matrix(0.0075,0,0,-0.0075,364.5,153)"/>
  <path fill="#52524E" d="M306 -12Q225 -12 166.5 15.5Q108 43 67 89L121 136Q158 97 202.0 76.0Q246 55 308 55Q368 55 406.5 76.5Q445 98 445 144Q445 164 437.5 177.5Q430 191 417.0 199.0Q404 207 388.0 211.5Q372 216 354 219L273 231Q246 235 214.5 242.0Q183 249 157.0 264.5Q131 280 113.5 306.0Q96 332 96 374Q96 413 111.5 441.5Q127 470 155.0 489.5Q183 509 221.0 518.5Q259 528 304 528Q374 528 425.5 506.0Q477 484 514 445L462 396Q453 407 439.5 418.5Q426 430 406.5 439.5Q387 449 361.0 455.0Q335 461 301 461Q240 461 207.5 440.0Q175 419 175 379Q175 359 182.5 345.5Q190 332 203.0 324.0Q216 316 232.5 311.5Q249 307 266 304L347 292Q375 288 406.0 281.0Q437 274 463.0 258.5Q489 243 506.5 217.0Q524 191 524 149Q524 72 464.5 30.0Q405 -12 306 -12Z" transform="matrix(0.0075,0,0,-0.0075,373.5,153)"/>
  <path fill="#52524E" d="M325 0Q266 0 238.5 33.0Q211 66 211 118V448H39V516H167Q193 516 203.5 526.5Q214 537 214 563V698H291V516H526V448H291V68H526V0Z" transform="matrix(0.0075,0,0,-0.0075,378.0,153)"/>
  <path fill="#52524E" d="M77 68H228V448H77V516H308V386H313Q329 447 373.5 481.5Q418 516 487 516H559V436H462Q393 436 350.5 396.0Q308 356 308 291V68H508V0H77Z" transform="matrix(0.0075,0,0,-0.0075,382.5,153)"/>
  <path fill="#52524E" d="M309 -12Q253 -12 208.5 7.0Q164 26 132.5 61.5Q101 97 84.0 146.5Q67 196 67 257Q67 319 84.5 369.0Q102 419 133.0 454.5Q164 490 207.5 509.0Q251 528 304 528Q356 528 398.5 509.0Q441 490 471.0 456.5Q501 423 517.0 377.0Q533 331 533 276V238H151V214Q151 180 162.0 151.0Q173 122 193.5 101.0Q214 80 243.5 68.5Q273 57 309 57Q361 57 399.0 81.0Q437 105 457 147L516 107Q493 55 439.5 21.5Q386 -12 309 -12ZM304 462Q271 462 243.0 450.0Q215 438 194.5 417.0Q174 396 162.5 367.5Q151 339 151 305V298H447V309Q447 343 436.5 371.0Q426 399 407.5 419.5Q389 440 362.5 451.0Q336 462 304 462Z" transform="matrix(0.0075,0,0,-0.0075,387.0,153)"/>
  <path fill="#52524E" d="M495 0Q448 0 428.0 24.0Q408 48 403 84H398Q381 39 343.5 13.5Q306 -12 243 -12Q162 -12 114.0 30.0Q66 72 66 145Q66 217 118.5 256.0Q171 295 288 295H398V346Q398 403 366.0 431.5Q334 460 275 460Q223 460 190.0 439.5Q157 419 137 384L83 424Q93 444 110.0 463.0Q127 482 152.0 496.5Q177 511 209.0 519.5Q241 528 280 528Q371 528 424.5 482.0Q478 436 478 354V70H550V0ZM257 55Q288 55 313.5 62.5Q339 70 358.0 82.5Q377 95 387.5 112.5Q398 130 398 150V235H288Q216 235 183.0 215.0Q150 195 150 157V136Q150 96 178.5 75.5Q207 55 257 55Z" transform="matrix(0.0075,0,0,-0.0075,391.5,153)"/>
  <path fill="#52524E" d="M54 0V516H128V456H132Q144 486 166.0 507.0Q188 528 231 528Q276 528 298.0 505.5Q320 483 325 447H328Q342 482 368.0 505.0Q394 528 440 528Q503 528 524.5 484.0Q546 440 546 358V0H472V345Q472 411 458.5 436.5Q445 462 409 462Q377 462 357.0 441.5Q337 421 337 379V0H263V345Q263 411 249.5 436.5Q236 462 201 462Q169 462 148.5 441.5Q128 421 128 379V0Z" transform="matrix(0.0075,0,0,-0.0075,396.0,153)"/>
  <rect x="342" y="173" width="5" height="4" fill="#1A9E55"/>
  <path fill="#1A9E55" d="M495 0Q448 0 428.0 24.0Q408 48 403 84H398Q381 39 343.5 13.5Q306 -12 243 -12Q162 -12 114.0 30.0Q66 72 66 145Q66 217 118.5 256.0Q171 295 288 295H398V346Q398 403 366.0 431.5Q334 460 275 460Q223 460 190.0 439.5Q157 419 137 384L83 424Q93 444 110.0 463.0Q127 482 152.0 496.5Q177 511 209.0 519.5Q241 528 280 528Q371 528 424.5 482.0Q478 436 478 354V70H550V0ZM257 55Q288 55 313.5 62.5Q339 70 358.0 82.5Q377 95 387.5 112.5Q398 130 398 150V235H288Q216 235 183.0 215.0Q150 195 150 157V136Q150 96 178.5 75.5Q207 55 257 55Z" transform="matrix(0.006,0,0,-0.006,349,177)"/>
  <path fill="#1A9E55" d="M425 84H421Q371 -12 262 -12Q167 -12 113.5 59.0Q60 130 60 258Q60 386 113.5 457.0Q167 528 262 528Q371 528 421 432H425V740H505V0H425ZM293 59Q320 59 344.0 66.0Q368 73 386.0 86.5Q404 100 414.5 119.5Q425 139 425 165V351Q425 377 414.5 396.5Q404 416 386.0 429.5Q368 443 344.0 450.0Q320 457 293 457Q223 457 184.5 414.5Q146 372 146 302V214Q146 144 184.5 101.5Q223 59 293 59Z" transform="matrix(0.006,0,0,-0.006,352.6,177)"/>
  <path fill="#1A9E55" d="M425 84H421Q371 -12 262 -12Q167 -12 113.5 59.0Q60 130 60 258Q60 386 113.5 457.0Q167 528 262 528Q371 528 421 432H425V740H505V0H425ZM293 59Q320 59 344.0 66.0Q368 73 386.0 86.5Q404 100 414.5 119.5Q425 139 425 165V351Q425 377 414.5 396.5Q404 416 386.0 429.5Q368 443 344.0 450.0Q320 457 293 457Q223 457 184.5 414.5Q146 372 146 302V214Q146 144 184.5 101.5Q223 59 293 59Z" transform="matrix(0.006,0,0,-0.006,356.2,177)"/>
  <path fill="#1A9E55" d="M309 -12Q253 -12 208.5 7.0Q164 26 132.5 61.5Q101 97 84.0 146.5Q67 196 67 257Q67 319 84.5 369.0Q102 419 133.0 454.5Q164 490 207.5 509.0Q251 528 304 528Q356 528 398.5 509.0Q441 490 471.0 456.5Q501 423 517.0 377.0Q533 331 533 276V238H151V214Q151 180 162.0 151.0Q173 122 193.5 101.0Q214 80 243.5 68.5Q273 57 309 57Q361 57 399.0 81.0Q437 105 457 147L516 107Q493 55 439.5 21.5Q386 -12 309 -12ZM304 462Q271 462 243.0 450.0Q215 438 194.5 417.0Q174 396 162.5 367.5Q151 339 151 305V298H447V309Q447 343 436.5 371.0Q426 399 407.5 419.5Q389 440 362.5 451.0Q336 462 304 462Z" transform="matrix(0.006,0,0,-0.006,359.8,177)"/>
  <path fill="#1A9E55" d="M425 84H421Q371 -12 262 -12Q167 -12 113.5 59.0Q60 130 60 258Q60 386 113.5 457.0Q167 528 262 528Q371 528 421 432H425V740H505V0H425ZM293 59Q320 59 344.0 66.0Q368 73 386.0 86.5Q404 100 414.5 119.5Q425 139 425 165V351Q425 377 414.5 396.5Q404 416 386.0 429.5Q368 443 344.0 450.0Q320 457 293 457Q223 457 184.5 414.5Q146 372 146 302V214Q146 144 184.5 101.5Q223 59 293 59Z" transform="matrix(0.006,0,0,-0.006,363.4,177)"/>
  <rect x="384" y="173" width="5" height="4" fill="#C7860A"/>
  <path fill="#C7860A" d="M54 0V516H128V456H132Q144 486 166.0 507.0Q188 528 231 528Q276 528 298.0 505.5Q320 483 325 447H328Q342 482 368.0 505.0Q394 528 440 528Q503 528 524.5 484.0Q546 440 546 358V0H472V345Q472 411 458.5 436.5Q445 462 409 462Q377 462 357.0 441.5Q337 421 337 379V0H263V345Q263 411 249.5 436.5Q236 462 201 462Q169 462 148.5 441.5Q128 421 128 379V0Z" transform="matrix(0.006,0,0,-0.006,391,177)"/>
  <path fill="#C7860A" d="M300 -12Q246 -12 202.5 7.0Q159 26 128.5 61.5Q98 97 82.0 146.5Q66 196 66 258Q66 319 82.0 369.0Q98 419 128.5 454.5Q159 490 202.5 509.0Q246 528 300 528Q354 528 397.5 509.0Q441 490 471.5 454.5Q502 419 518.0 369.0Q534 319 534 258Q534 196 518.0 146.5Q502 97 471.5 61.5Q441 26 397.5 7.0Q354 -12 300 -12ZM300 57Q367 57 408.0 97.0Q449 137 449 221V295Q449 379 408.0 419.0Q367 459 300 459Q233 459 192.0 419.0Q151 379 151 295V221Q151 137 192.0 97.0Q233 57 300 57Z" transform="matrix(0.006,0,0,-0.006,394.6,177)"/>
  <path fill="#C7860A" d="M425 84H421Q371 -12 262 -12Q167 -12 113.5 59.0Q60 130 60 258Q60 386 113.5 457.0Q167 528 262 528Q371 528 421 432H425V740H505V0H425ZM293 59Q320 59 344.0 66.0Q368 73 386.0 86.5Q404 100 414.5 119.5Q425 139 425 165V351Q425 377 414.5 396.5Q404 416 386.0 429.5Q368 443 344.0 450.0Q320 457 293 457Q223 457 184.5 414.5Q146 372 146 302V214Q146 144 184.5 101.5Q223 59 293 59Z" transform="matrix(0.006,0,0,-0.006,398.2,177)"/>
  <path fill="#C7860A" d="M332 630Q297 630 283.0 644.5Q269 659 269 681V697Q269 719 283.0 733.5Q297 748 332 748Q367 748 381.0 733.5Q395 719 395 697V681Q395 659 381.0 644.5Q367 630 332 630ZM106 68H292V448H106V516H372V68H546V0H106Z" transform="matrix(0.006,0,0,-0.006,401.8,177)"/>
  <path fill="#C7860A" d="M83 68H257V448H73V516H257V622Q257 674 284.5 707.0Q312 740 371 740H544V672H337V516H544V448H337V68H521V0H83Z" transform="matrix(0.006,0,0,-0.006,405.4,177)"/>
  <path fill="#C7860A" d="M332 630Q297 630 283.0 644.5Q269 659 269 681V697Q269 719 283.0 733.5Q297 748 332 748Q367 748 381.0 733.5Q395 719 395 697V681Q395 659 381.0 644.5Q367 630 332 630ZM106 68H292V448H106V516H372V68H546V0H106Z" transform="matrix(0.006,0,0,-0.006,409.0,177)"/>
  <path fill="#C7860A" d="M309 -12Q253 -12 208.5 7.0Q164 26 132.5 61.5Q101 97 84.0 146.5Q67 196 67 257Q67 319 84.5 369.0Q102 419 133.0 454.5Q164 490 207.5 509.0Q251 528 304 528Q356 528 398.5 509.0Q441 490 471.0 456.5Q501 423 517.0 377.0Q533 331 533 276V238H151V214Q151 180 162.0 151.0Q173 122 193.5 101.0Q214 80 243.5 68.5Q273 57 309 57Q361 57 399.0 81.0Q437 105 457 147L516 107Q493 55 439.5 21.5Q386 -12 309 -12ZM304 462Q271 462 243.0 450.0Q215 438 194.5 417.0Q174 396 162.5 367.5Q151 339 151 305V298H447V309Q447 343 436.5 371.0Q426 399 407.5 419.5Q389 440 362.5 451.0Q336 462 304 462Z" transform="matrix(0.006,0,0,-0.006,412.6,177)"/>
  <path fill="#C7860A" d="M425 84H421Q371 -12 262 -12Q167 -12 113.5 59.0Q60 130 60 258Q60 386 113.5 457.0Q167 528 262 528Q371 528 421 432H425V740H505V0H425ZM293 59Q320 59 344.0 66.0Q368 73 386.0 86.5Q404 100 414.5 119.5Q425 139 425 165V351Q425 377 414.5 396.5Q404 416 386.0 429.5Q368 443 344.0 450.0Q320 457 293 457Q223 457 184.5 414.5Q146 372 146 302V214Q146 144 184.5 101.5Q223 59 293 59Z" transform="matrix(0.006,0,0,-0.006,416.2,177)"/>
  <rect x="426" y="173" width="5" height="4" fill="#D43B3B"/>
  <path fill="#D43B3B" d="M77 68H228V448H77V516H308V386H313Q329 447 373.5 481.5Q418 516 487 516H559V436H462Q393 436 350.5 396.0Q308 356 308 291V68H508V0H77Z" transform="matrix(0.006,0,0,-0.006,433,177)"/>
  <path fill="#D43B3B" d="M309 -12Q253 -12 208.5 7.0Q164 26 132.5 61.5Q101 97 84.0 146.5Q67 196 67 257Q67 319 84.5 369.0Q102 419 133.0 454.5Q164 490 207.5 509.0Q251 528 304 528Q356 528 398.5 509.0Q441 490 471.0 456.5Q501 423 517.0 377.0Q533 331 533 276V238H151V214Q151 180 162.0 151.0Q173 122 193.5 101.0Q214 80 243.5 68.5Q273 57 309 57Q361 57 399.0 81.0Q437 105 457 147L516 107Q493 55 439.5 21.5Q386 -12 309 -12ZM304 462Q271 462 243.0 450.0Q215 438 194.5 417.0Q174 396 162.5 367.5Q151 339 151 305V298H447V309Q447 343 436.5 371.0Q426 399 407.5 419.5Q389 440 362.5 451.0Q336 462 304 462Z" transform="matrix(0.006,0,0,-0.006,436.6,177)"/>
  <path fill="#D43B3B" d="M54 0V516H128V456H132Q144 486 166.0 507.0Q188 528 231 528Q276 528 298.0 505.5Q320 483 325 447H328Q342 482 368.0 505.0Q394 528 440 528Q503 528 524.5 484.0Q546 440 546 358V0H472V345Q472 411 458.5 436.5Q445 462 409 462Q377 462 357.0 441.5Q337 421 337 379V0H263V345Q263 411 249.5 436.5Q236 462 201 462Q169 462 148.5 441.5Q128 421 128 379V0Z" transform="matrix(0.006,0,0,-0.006,440.2,177)"/>
  <path fill="#D43B3B" d="M300 -12Q246 -12 202.5 7.0Q159 26 128.5 61.5Q98 97 82.0 146.5Q66 196 66 258Q66 319 82.0 369.0Q98 419 128.5 454.5Q159 490 202.5 509.0Q246 528 300 528Q354 528 397.5 509.0Q441 490 471.5 454.5Q502 419 518.0 369.0Q534 319 534 258Q534 196 518.0 146.5Q502 97 471.5 61.5Q441 26 397.5 7.0Q354 -12 300 -12ZM300 57Q367 57 408.0 97.0Q449 137 449 221V295Q449 379 408.0 419.0Q367 459 300 459Q233 459 192.0 419.0Q151 379 151 295V221Q151 137 192.0 97.0Q233 57 300 57Z" transform="matrix(0.006,0,0,-0.006,443.8,177)"/>
  <path fill="#D43B3B" d="M249 0 64 516H145L219 300L299 67H303L383 300L457 516H536L351 0Z" transform="matrix(0.006,0,0,-0.006,447.4,177)"/>
  <path fill="#D43B3B" d="M309 -12Q253 -12 208.5 7.0Q164 26 132.5 61.5Q101 97 84.0 146.5Q67 196 67 257Q67 319 84.5 369.0Q102 419 133.0 454.5Q164 490 207.5 509.0Q251 528 304 528Q356 528 398.5 509.0Q441 490 471.0 456.5Q501 423 517.0 377.0Q533 331 533 276V238H151V214Q151 180 162.0 151.0Q173 122 193.5 101.0Q214 80 243.5 68.5Q273 57 309 57Q361 57 399.0 81.0Q437 105 457 147L516 107Q493 55 439.5 21.5Q386 -12 309 -12ZM304 462Q271 462 243.0 450.0Q215 438 194.5 417.0Q174 396 162.5 367.5Q151 339 151 305V298H447V309Q447 343 436.5 371.0Q426 399 407.5 419.5Q389 440 362.5 451.0Q336 462 304 462Z" transform="matrix(0.006,0,0,-0.006,451.0,177)"/>
  <path fill="#D43B3B" d="M425 84H421Q371 -12 262 -12Q167 -12 113.5 59.0Q60 130 60 258Q60 386 113.5 457.0Q167 528 262 528Q371 528 421 432H425V740H505V0H425ZM293 59Q320 59 344.0 66.0Q368 73 386.0 86.5Q404 100 414.5 119.5Q425 139 425 165V351Q425 377 414.5 396.5Q404 416 386.0 429.5Q368 443 344.0 450.0Q320 457 293 457Q223 457 184.5 414.5Q146 372 146 302V214Q146 144 184.5 101.5Q223 59 293 59Z" transform="matrix(0.006,0,0,-0.006,454.6,177)"/>
  <rect x="510" y="123" width="120" height="64" fill="#F2F2EE" stroke="#111110" stroke-width="1"/>
  <path fill="#111110" d="M298 -12Q204 -12 144.0 22.5Q84 57 45 111L106 161Q147 110 192.5 85.0Q238 60 301 60Q377 60 417.0 95.0Q457 130 457 193Q457 244 428.0 272.5Q399 301 327 313L249 326Q198 335 163.5 353.0Q129 371 108.0 396.5Q87 422 78.0 452.5Q69 483 69 516Q69 612 132.0 661.0Q195 710 302 710Q386 710 443.5 682.0Q501 654 536 603L477 552Q448 590 407.0 614.0Q366 638 301 638Q230 638 192.0 608.0Q154 578 154 518Q154 471 182.5 441.5Q211 412 285 399L360 386Q411 377 446.0 359.0Q481 341 502.5 316.0Q524 291 533.0 260.0Q542 229 542 195Q542 98 478.5 43.0Q415 -12 298 -12Z" transform="matrix(0.0085,0,0,-0.0085,518,138)"/>
  <path fill="#111110" d="M342 625V0H258V625H25V698H575V625Z" transform="matrix(0.0085,0,0,-0.0085,523.1,138)"/>
  <path fill="#111110" d="M300 -12Q236 -12 190.0 12.5Q144 37 114.0 83.0Q84 129 70.0 196.0Q56 263 56 349Q56 434 70.0 501.5Q84 569 114.0 615.0Q144 661 190.0 685.5Q236 710 300 710Q364 710 410.0 685.5Q456 661 486.0 615.0Q516 569 530.0 501.5Q544 434 544 349Q544 263 530.0 196.0Q516 129 486.0 83.0Q456 37 410.0 12.5Q364 -12 300 -12ZM300 61Q342 61 371.0 77.5Q400 94 419.0 124.0Q438 154 446.5 196.5Q455 239 455 292V406Q455 458 446.5 501.0Q438 544 419.0 574.0Q400 604 371.0 620.5Q342 637 300 637Q258 637 229.0 620.5Q200 604 181.0 574.0Q162 544 153.5 501.0Q145 458 145 406V292Q145 239 153.5 196.5Q162 154 181.0 124.0Q200 94 229.0 77.5Q258 61 300 61Z" transform="matrix(0.0085,0,0,-0.0085,528.2,138)"/>
  <path fill="#111110" d="M174 0H90V698H344Q441 698 492.0 645.0Q543 592 543 497Q543 412 499.0 361.0Q455 310 371 302L549 0H455L285 298H174ZM342 369Q395 369 424.5 395.5Q454 422 454 471V523Q454 572 424.5 598.5Q395 625 342 625H174V369Z" transform="matrix(0.0085,0,0,-0.0085,533.3,138)"/>
  <path fill="#111110" d="M481 0 422 199H177L118 0H31L245 698H356L570 0ZM304 609H295L197 272H402Z" transform="matrix(0.0085,0,0,-0.0085,538.4,138)"/>
  <path fill="#111110" d="M444 93H439Q430 73 418.0 54.0Q406 35 387.5 20.5Q369 6 343.0 -3.0Q317 -12 281 -12Q167 -12 111.5 80.0Q56 172 56 344Q56 524 117.0 617.0Q178 710 305 710Q354 710 390.0 697.0Q426 684 451.5 662.0Q477 640 494.0 612.5Q511 585 522 557L450 524Q441 547 429.5 567.5Q418 588 401.5 603.5Q385 619 362.0 628.0Q339 637 308 637Q224 637 184.5 574.0Q145 511 145 406V298Q145 245 153.0 201.5Q161 158 179.5 126.0Q198 94 227.5 76.5Q257 59 300 59Q368 59 406.0 100.0Q444 141 444 206V278H297V345H522V0H444Z" transform="matrix(0.0085,0,0,-0.0085,543.5,138)"/>
  <path fill="#111110" d="M90 0V698H520V625H174V390H508V317H174V73H520V0Z" transform="matrix(0.0085,0,0,-0.0085,548.6,138)"/>
  <path fill="#52524E" d="M402 197Q364 197 337.5 218.5Q311 240 282 274Q256 308 236.0 327.0Q216 346 197 346Q168 346 148.5 315.0Q129 284 113 207L52 221Q69 313 104.0 363.0Q139 413 198 413Q236 413 262.0 392.0Q288 371 316 338Q344 302 364.0 283.0Q384 264 403 264Q436 265 455.0 302.5Q474 340 487 403L548 389Q526 282 490.0 239.5Q454 197 402 197Z" transform="matrix(0.0075,0,0,-0.0075,518,153)"/>
  <path fill="#52524E" d="M90 -138 438 760H510L162 -138Z" transform="matrix(0.0075,0,0,-0.0075,522.5,153)"/>
  <path fill="#52524E" d="M300 -9Q259 -9 242.5 8.0Q226 25 226 51V69Q226 95 242.5 112.0Q259 129 300 129Q341 129 357.5 112.0Q374 95 374 69V51Q374 25 357.5 8.0Q341 -9 300 -9Z" transform="matrix(0.0075,0,0,-0.0075,527.0,153)"/>
  <path fill="#52524E" d="M83 68H257V448H73V516H257V622Q257 674 284.5 707.0Q312 740 371 740H544V672H337V516H544V448H337V68H521V0H83Z" transform="matrix(0.0075,0,0,-0.0075,531.5,153)"/>
  <path fill="#52524E" d="M80 68H260V672H80V740H340V68H520V0H80Z" transform="matrix(0.0075,0,0,-0.0075,536.0,153)"/>
  <path fill="#52524E" d="M332 630Q297 630 283.0 644.5Q269 659 269 681V697Q269 719 283.0 733.5Q297 748 332 748Q367 748 381.0 733.5Q395 719 395 697V681Q395 659 381.0 644.5Q367 630 332 630ZM106 68H292V448H106V516H372V68H546V0H106Z" transform="matrix(0.0075,0,0,-0.0075,540.5,153)"/>
  <path fill="#52524E" d="M561 -59Q561 -137 496.0 -174.5Q431 -212 301 -212Q176 -212 121.5 -179.0Q67 -146 67 -84Q67 -42 89.0 -19.0Q111 4 151 15V27Q129 38 117.0 55.0Q105 72 105 98Q105 138 131.5 158.0Q158 178 198 188V192Q150 213 123.5 254.0Q97 295 97 350Q97 389 111.0 422.0Q125 455 151.5 478.5Q178 502 215.0 515.0Q252 528 297 528Q355 528 399 507V516Q399 546 413.0 566.0Q427 586 461 586H556V516H440V481Q468 457 483.0 424.0Q498 391 498 350Q498 311 483.5 278.0Q469 245 443.0 221.5Q417 198 379.5 185.0Q342 172 297 172Q284 172 272.0 173.0Q260 174 248 176Q236 174 223.0 169.5Q210 165 199.0 157.5Q188 150 181.0 140.0Q174 130 174 117Q174 94 197.0 86.5Q220 79 257 79H371Q471 79 516.0 41.5Q561 4 561 -59ZM486 -63Q486 -32 461.0 -13.5Q436 5 374 5H195Q143 -16 143 -65Q143 -99 170.0 -123.5Q197 -148 260 -148H338Q408 -148 447.0 -126.5Q486 -105 486 -63ZM297 234Q357 234 385.5 262.0Q414 290 414 336V365Q414 411 385.5 438.5Q357 466 297 466Q237 466 209.0 438.5Q181 411 181 365V336Q181 290 209.0 262.0Q237 234 297 234Z" transform="matrix(0.0075,0,0,-0.0075,545.0,153)"/>
  <path fill="#52524E" d="M98 740H178V432H182Q190 451 202.0 468.5Q214 486 231.5 499.0Q249 512 273.0 520.0Q297 528 329 528Q410 528 459.0 476.5Q508 425 508 331V0H428V317Q428 388 397.0 422.5Q366 457 306 457Q282 457 259.0 451.0Q236 445 218.0 433.0Q200 421 189.0 402.0Q178 383 178 358V0H98Z" transform="matrix(0.0075,0,0,-0.0075,549.5,153)"/>
  <path fill="#52524E" d="M325 0Q266 0 238.5 33.0Q211 66 211 118V448H39V516H167Q193 516 203.5 526.5Q214 537 214 563V698H291V516H526V448H291V68H526V0Z" transform="matrix(0.0075,0,0,-0.0075,554.0,153)"/>
  <path fill="#52524E" d="M77 68H228V448H77V516H308V386H313Q329 447 373.5 481.5Q418 516 487 516H559V436H462Q393 436 350.5 396.0Q308 356 308 291V68H508V0H77Z" transform="matrix(0.0075,0,0,-0.0075,558.5,153)"/>
  <path fill="#52524E" d="M309 -12Q253 -12 208.5 7.0Q164 26 132.5 61.5Q101 97 84.0 146.5Q67 196 67 257Q67 319 84.5 369.0Q102 419 133.0 454.5Q164 490 207.5 509.0Q251 528 304 528Q356 528 398.5 509.0Q441 490 471.0 456.5Q501 423 517.0 377.0Q533 331 533 276V238H151V214Q151 180 162.0 151.0Q173 122 193.5 101.0Q214 80 243.5 68.5Q273 57 309 57Q361 57 399.0 81.0Q437 105 457 147L516 107Q493 55 439.5 21.5Q386 -12 309 -12ZM304 462Q271 462 243.0 450.0Q215 438 194.5 417.0Q174 396 162.5 367.5Q151 339 151 305V298H447V309Q447 343 436.5 371.0Q426 399 407.5 419.5Q389 440 362.5 451.0Q336 462 304 462Z" transform="matrix(0.0075,0,0,-0.0075,563.0,153)"/>
  <path fill="#52524E" d="M318 -12Q262 -12 218.5 7.5Q175 27 145.0 62.0Q115 97 99.5 147.0Q84 197 84 258Q84 319 100.0 369.0Q116 419 146.0 454.5Q176 490 219.0 509.0Q262 528 317 528Q392 528 439.0 495.0Q486 462 508 409L444 375Q430 415 397.5 437.0Q365 459 317 459Q282 459 254.5 447.5Q227 436 208.0 415.0Q189 394 179.5 365.0Q170 336 170 302V214Q170 180 179.5 151.0Q189 122 208.0 101.0Q227 80 255.0 68.5Q283 57 319 57Q371 57 405.0 81.0Q439 105 459 147L516 108Q493 56 444.5 22.0Q396 -12 318 -12Z" transform="matrix(0.0075,0,0,-0.0075,567.5,153)"/>
  <path fill="#52524E" d="M90 -138 438 760H510L162 -138Z" transform="matrix(0.0075,0,0,-0.0075,572.0,153)"/>
  <path fill="#52524E" d="M480 698V181Q480 137 465.0 101.0Q450 65 422.5 40.0Q395 15 357.0 1.5Q319 -12 274 -12Q194 -12 142.0 29.5Q90 71 74 146L154 163Q159 142 167.5 123.5Q176 105 190.5 91.5Q205 78 226.0 70.0Q247 62 276 62Q333 62 364.5 94.5Q396 127 396 196V625H144V698Z" transform="matrix(0.0075,0,0,-0.0075,518,164)"/>
  <path fill="#52524E" d="M298 -12Q204 -12 144.0 22.5Q84 57 45 111L106 161Q147 110 192.5 85.0Q238 60 301 60Q377 60 417.0 95.0Q457 130 457 193Q457 244 428.0 272.5Q399 301 327 313L249 326Q198 335 163.5 353.0Q129 371 108.0 396.5Q87 422 78.0 452.5Q69 483 69 516Q69 612 132.0 661.0Q195 710 302 710Q386 710 443.5 682.0Q501 654 536 603L477 552Q448 590 407.0 614.0Q366 638 301 638Q230 638 192.0 608.0Q154 578 154 518Q154 471 182.5 441.5Q211 412 285 399L360 386Q411 377 446.0 359.0Q481 341 502.5 316.0Q524 291 533.0 260.0Q542 229 542 195Q542 98 478.5 43.0Q415 -12 298 -12Z" transform="matrix(0.0075,0,0,-0.0075,522.5,164)"/>
  <path fill="#52524E" d="M300 -12Q236 -12 190.0 12.5Q144 37 114.0 83.0Q84 129 70.0 196.0Q56 263 56 349Q56 434 70.0 501.5Q84 569 114.0 615.0Q144 661 190.0 685.5Q236 710 300 710Q364 710 410.0 685.5Q456 661 486.0 615.0Q516 569 530.0 501.5Q544 434 544 349Q544 263 530.0 196.0Q516 129 486.0 83.0Q456 37 410.0 12.5Q364 -12 300 -12ZM300 61Q342 61 371.0 77.5Q400 94 419.0 124.0Q438 154 446.5 196.5Q455 239 455 292V406Q455 458 446.5 501.0Q438 544 419.0 574.0Q400 604 371.0 620.5Q342 637 300 637Q258 637 229.0 620.5Q200 604 181.0 574.0Q162 544 153.5 501.0Q145 458 145 406V292Q145 239 153.5 196.5Q162 154 181.0 124.0Q200 94 229.0 77.5Q258 61 300 61Z" transform="matrix(0.0075,0,0,-0.0075,527.0,164)"/>
  <path fill="#52524E" d="M163 588H156V0H80V698H199L437 110H444V698H520V0H401Z" transform="matrix(0.0075,0,0,-0.0075,531.5,164)"/>
  <path fill="#52524E" d="M262 62V271H62V339H262V548H338V339H538V271H338V62Z" transform="matrix(0.0075,0,0,-0.0075,540.5,164)"/>
  <path fill="#52524E" d="M95 740H175V432H179Q229 528 338 528Q433 528 486.5 457.0Q540 386 540 258Q540 130 486.5 59.0Q433 -12 338 -12Q229 -12 179 84H175V0H95ZM307 59Q377 59 415.5 101.5Q454 144 454 214V302Q454 372 415.5 414.5Q377 457 307 457Q280 457 256.0 450.0Q232 443 214.0 429.5Q196 416 185.5 396.5Q175 377 175 351V165Q175 139 185.5 119.5Q196 100 214.0 86.5Q232 73 256.0 66.0Q280 59 307 59Z" transform="matrix(0.0075,0,0,-0.0075,549.5,164)"/>
  <path fill="#52524E" d="M80 68H260V672H80V740H340V68H520V0H80Z" transform="matrix(0.0075,0,0,-0.0075,554.0,164)"/>
  <path fill="#52524E" d="M300 -12Q246 -12 202.5 7.0Q159 26 128.5 61.5Q98 97 82.0 146.5Q66 196 66 258Q66 319 82.0 369.0Q98 419 128.5 454.5Q159 490 202.5 509.0Q246 528 300 528Q354 528 397.5 509.0Q441 490 471.5 454.5Q502 419 518.0 369.0Q534 319 534 258Q534 196 518.0 146.5Q502 97 471.5 61.5Q441 26 397.5 7.0Q354 -12 300 -12ZM300 57Q367 57 408.0 97.0Q449 137 449 221V295Q449 379 408.0 419.0Q367 459 300 459Q233 459 192.0 419.0Q151 379 151 295V221Q151 137 192.0 97.0Q233 57 300 57Z" transform="matrix(0.0075,0,0,-0.0075,558.5,164)"/>
  <path fill="#52524E" d="M95 740H175V432H179Q229 528 338 528Q433 528 486.5 457.0Q540 386 540 258Q540 130 486.5 59.0Q433 -12 338 -12Q229 -12 179 84H175V0H95ZM307 59Q377 59 415.5 101.5Q454 144 454 214V302Q454 372 415.5 414.5Q377 457 307 457Q280 457 256.0 450.0Q232 443 214.0 429.5Q196 416 185.5 396.5Q175 377 175 351V165Q175 139 185.5 119.5Q196 100 214.0 86.5Q232 73 256.0 66.0Q280 59 307 59Z" transform="matrix(0.0075,0,0,-0.0075,563.0,164)"/>
  <path fill="#52524E" d="M306 -12Q225 -12 166.5 15.5Q108 43 67 89L121 136Q158 97 202.0 76.0Q246 55 308 55Q368 55 406.5 76.5Q445 98 445 144Q445 164 437.5 177.5Q430 191 417.0 199.0Q404 207 388.0 211.5Q372 216 354 219L273 231Q246 235 214.5 242.0Q183 249 157.0 264.5Q131 280 113.5 306.0Q96 332 96 374Q96 413 111.5 441.5Q127 470 155.0 489.5Q183 509 221.0 518.5Q259 528 304 528Q374 528 425.5 506.0Q477 484 514 445L462 396Q453 407 439.5 418.5Q426 430 406.5 439.5Q387 449 361.0 455.0Q335 461 301 461Q240 461 207.5 440.0Q175 419 175 379Q175 359 182.5 345.5Q190 332 203.0 324.0Q216 316 232.5 311.5Q249 307 266 304L347 292Q375 288 406.0 281.0Q437 274 463.0 258.5Q489 243 506.5 217.0Q524 191 524 149Q524 72 464.5 30.0Q405 -12 306 -12Z" transform="matrix(0.0075,0,0,-0.0075,567.5,164)"/>
  <rect x="666" y="123" width="120" height="64" fill="#F2F2EE" stroke="#111110" stroke-width="1"/>
  <path fill="#111110" d="M174 0H90V698H344Q441 698 492.0 645.0Q543 592 543 497Q543 412 499.0 361.0Q455 310 371 302L549 0H455L285 298H174ZM342 369Q395 369 424.5 395.5Q454 422 454 471V523Q454 572 424.5 598.5Q395 625 342 625H174V369Z" transform="matrix(0.0085,0,0,-0.0085,674,138)"/>
  <path fill="#111110" d="M90 0V698H520V625H174V390H508V317H174V73H520V0Z" transform="matrix(0.0085,0,0,-0.0085,679.1,138)"/>
  <path fill="#111110" d="M90 0V698H344Q441 698 492.0 645.0Q543 592 543 497Q543 402 492.0 349.0Q441 296 344 296H174V0ZM174 369H342Q395 369 424.5 395.5Q454 422 454 471V523Q454 572 424.5 598.5Q395 625 342 625H174Z" transform="matrix(0.0085,0,0,-0.0085,684.2,138)"/>
  <path fill="#111110" d="M300 -12Q236 -12 190.0 12.5Q144 37 114.0 83.0Q84 129 70.0 196.0Q56 263 56 349Q56 434 70.0 501.5Q84 569 114.0 615.0Q144 661 190.0 685.5Q236 710 300 710Q364 710 410.0 685.5Q456 661 486.0 615.0Q516 569 530.0 501.5Q544 434 544 349Q544 263 530.0 196.0Q516 129 486.0 83.0Q456 37 410.0 12.5Q364 -12 300 -12ZM300 61Q342 61 371.0 77.5Q400 94 419.0 124.0Q438 154 446.5 196.5Q455 239 455 292V406Q455 458 446.5 501.0Q438 544 419.0 574.0Q400 604 371.0 620.5Q342 637 300 637Q258 637 229.0 620.5Q200 604 181.0 574.0Q162 544 153.5 501.0Q145 458 145 406V292Q145 239 153.5 196.5Q162 154 181.0 124.0Q200 94 229.0 77.5Q258 61 300 61Z" transform="matrix(0.0085,0,0,-0.0085,689.3,138)"/>
  <path fill="#111110" d="M174 0H90V698H344Q441 698 492.0 645.0Q543 592 543 497Q543 412 499.0 361.0Q455 310 371 302L549 0H455L285 298H174ZM342 369Q395 369 424.5 395.5Q454 422 454 471V523Q454 572 424.5 598.5Q395 625 342 625H174V369Z" transform="matrix(0.0085,0,0,-0.0085,694.4,138)"/>
  <path fill="#111110" d="M342 625V0H258V625H25V698H575V625Z" transform="matrix(0.0085,0,0,-0.0085,699.5,138)"/>
  <path fill="#52524E" d="M422 84H418Q410 65 398.0 47.5Q386 30 368.5 17.0Q351 4 327.0 -4.0Q303 -12 271 -12Q190 -12 141.0 39.5Q92 91 92 185V516H172V199Q172 128 203.0 93.5Q234 59 294 59Q318 59 341.0 65.0Q364 71 382.0 83.0Q400 95 411.0 113.5Q422 132 422 158V516H502V0H422Z" transform="matrix(0.0075,0,0,-0.0075,674,153)"/>
  <path fill="#52524E" d="M98 0V516H178V432H182Q190 451 202.0 468.5Q214 486 231.5 499.0Q249 512 273.0 520.0Q297 528 329 528Q410 528 459.0 476.5Q508 425 508 331V0H428V317Q428 388 397.0 422.5Q366 457 306 457Q282 457 259.0 451.0Q236 445 218.0 433.0Q200 421 189.0 402.0Q178 383 178 358V0Z" transform="matrix(0.0075,0,0,-0.0075,678.5,153)"/>
  <path fill="#52524E" d="M332 630Q297 630 283.0 644.5Q269 659 269 681V697Q269 719 283.0 733.5Q297 748 332 748Q367 748 381.0 733.5Q395 719 395 697V681Q395 659 381.0 644.5Q367 630 332 630ZM106 68H292V448H106V516H372V68H546V0H106Z" transform="matrix(0.0075,0,0,-0.0075,683.0,153)"/>
  <path fill="#52524E" d="M83 68H257V448H73V516H257V622Q257 674 284.5 707.0Q312 740 371 740H544V672H337V516H544V448H337V68H521V0H83Z" transform="matrix(0.0075,0,0,-0.0075,687.5,153)"/>
  <path fill="#52524E" d="M332 630Q297 630 283.0 644.5Q269 659 269 681V697Q269 719 283.0 733.5Q297 748 332 748Q367 748 381.0 733.5Q395 719 395 697V681Q395 659 381.0 644.5Q367 630 332 630ZM106 68H292V448H106V516H372V68H546V0H106Z" transform="matrix(0.0075,0,0,-0.0075,692.0,153)"/>
  <path fill="#52524E" d="M309 -12Q253 -12 208.5 7.0Q164 26 132.5 61.5Q101 97 84.0 146.5Q67 196 67 257Q67 319 84.5 369.0Q102 419 133.0 454.5Q164 490 207.5 509.0Q251 528 304 528Q356 528 398.5 509.0Q441 490 471.0 456.5Q501 423 517.0 377.0Q533 331 533 276V238H151V214Q151 180 162.0 151.0Q173 122 193.5 101.0Q214 80 243.5 68.5Q273 57 309 57Q361 57 399.0 81.0Q437 105 457 147L516 107Q493 55 439.5 21.5Q386 -12 309 -12ZM304 462Q271 462 243.0 450.0Q215 438 194.5 417.0Q174 396 162.5 367.5Q151 339 151 305V298H447V309Q447 343 436.5 371.0Q426 399 407.5 419.5Q389 440 362.5 451.0Q336 462 304 462Z" transform="matrix(0.0075,0,0,-0.0075,696.5,153)"/>
  <path fill="#52524E" d="M425 84H421Q371 -12 262 -12Q167 -12 113.5 59.0Q60 130 60 258Q60 386 113.5 457.0Q167 528 262 528Q371 528 421 432H425V740H505V0H425ZM293 59Q320 59 344.0 66.0Q368 73 386.0 86.5Q404 100 414.5 119.5Q425 139 425 165V351Q425 377 414.5 396.5Q404 416 386.0 429.5Q368 443 344.0 450.0Q320 457 293 457Q223 457 184.5 414.5Q146 372 146 302V214Q146 144 184.5 101.5Q223 59 293 59Z" transform="matrix(0.0075,0,0,-0.0075,701.0,153)"/>
  <path fill="#52524E" d="M425 84H421Q371 -12 262 -12Q167 -12 113.5 59.0Q60 130 60 258Q60 386 113.5 457.0Q167 528 262 528Q371 528 421 432H425V740H505V0H425ZM293 59Q320 59 344.0 66.0Q368 73 386.0 86.5Q404 100 414.5 119.5Q425 139 425 165V351Q425 377 414.5 396.5Q404 416 386.0 429.5Q368 443 344.0 450.0Q320 457 293 457Q223 457 184.5 414.5Q146 372 146 302V214Q146 144 184.5 101.5Q223 59 293 59Z" transform="matrix(0.0075,0,0,-0.0075,710.0,153)"/>
  <path fill="#52524E" d="M332 630Q297 630 283.0 644.5Q269 659 269 681V697Q269 719 283.0 733.5Q297 748 332 748Q367 748 381.0 733.5Q395 719 395 697V681Q395 659 381.0 644.5Q367 630 332 630ZM106 68H292V448H106V516H372V68H546V0H106Z" transform="matrix(0.0075,0,0,-0.0075,714.5,153)"/>
  <path fill="#52524E" d="M83 68H257V448H73V516H257V622Q257 674 284.5 707.0Q312 740 371 740H544V672H337V516H544V448H337V68H521V0H83Z" transform="matrix(0.0075,0,0,-0.0075,719.0,153)"/>
  <path fill="#52524E" d="M83 68H257V448H73V516H257V622Q257 674 284.5 707.0Q312 740 371 740H544V672H337V516H544V448H337V68H521V0H83Z" transform="matrix(0.0075,0,0,-0.0075,723.5,153)"/>
  <path fill="#52524E" d="M480 698V181Q480 137 465.0 101.0Q450 65 422.5 40.0Q395 15 357.0 1.5Q319 -12 274 -12Q194 -12 142.0 29.5Q90 71 74 146L154 163Q159 142 167.5 123.5Q176 105 190.5 91.5Q205 78 226.0 70.0Q247 62 276 62Q333 62 364.5 94.5Q396 127 396 196V625H144V698Z" transform="matrix(0.0075,0,0,-0.0075,674,164)"/>
  <path fill="#52524E" d="M298 -12Q204 -12 144.0 22.5Q84 57 45 111L106 161Q147 110 192.5 85.0Q238 60 301 60Q377 60 417.0 95.0Q457 130 457 193Q457 244 428.0 272.5Q399 301 327 313L249 326Q198 335 163.5 353.0Q129 371 108.0 396.5Q87 422 78.0 452.5Q69 483 69 516Q69 612 132.0 661.0Q195 710 302 710Q386 710 443.5 682.0Q501 654 536 603L477 552Q448 590 407.0 614.0Q366 638 301 638Q230 638 192.0 608.0Q154 578 154 518Q154 471 182.5 441.5Q211 412 285 399L360 386Q411 377 446.0 359.0Q481 341 502.5 316.0Q524 291 533.0 260.0Q542 229 542 195Q542 98 478.5 43.0Q415 -12 298 -12Z" transform="matrix(0.0075,0,0,-0.0075,678.5,164)"/>
  <path fill="#52524E" d="M300 -12Q236 -12 190.0 12.5Q144 37 114.0 83.0Q84 129 70.0 196.0Q56 263 56 349Q56 434 70.0 501.5Q84 569 114.0 615.0Q144 661 190.0 685.5Q236 710 300 710Q364 710 410.0 685.5Q456 661 486.0 615.0Q516 569 530.0 501.5Q544 434 544 349Q544 263 530.0 196.0Q516 129 486.0 83.0Q456 37 410.0 12.5Q364 -12 300 -12ZM300 61Q342 61 371.0 77.5Q400 94 419.0 124.0Q438 154 446.5 196.5Q455 239 455 292V406Q455 458 446.5 501.0Q438 544 419.0 574.0Q400 604 371.0 620.5Q342 637 300 637Q258 637 229.0 620.5Q200 604 181.0 574.0Q162 544 153.5 501.0Q145 458 145 406V292Q145 239 153.5 196.5Q162 154 181.0 124.0Q200 94 229.0 77.5Q258 61 300 61Z" transform="matrix(0.0075,0,0,-0.0075,683.0,164)"/>
  <path fill="#52524E" d="M163 588H156V0H80V698H199L437 110H444V698H520V0H401Z" transform="matrix(0.0075,0,0,-0.0075,687.5,164)"/>
  <path fill="#52524E" d="M309 -12Q253 -12 208.5 7.0Q164 26 132.5 61.5Q101 97 84.0 146.5Q67 196 67 257Q67 319 84.5 369.0Q102 419 133.0 454.5Q164 490 207.5 509.0Q251 528 304 528Q356 528 398.5 509.0Q441 490 471.0 456.5Q501 423 517.0 377.0Q533 331 533 276V238H151V214Q151 180 162.0 151.0Q173 122 193.5 101.0Q214 80 243.5 68.5Q273 57 309 57Q361 57 399.0 81.0Q437 105 457 147L516 107Q493 55 439.5 21.5Q386 -12 309 -12ZM304 462Q271 462 243.0 450.0Q215 438 194.5 417.0Q174 396 162.5 367.5Q151 339 151 305V298H447V309Q447 343 436.5 371.0Q426 399 407.5 419.5Q389 440 362.5 451.0Q336 462 304 462Z" transform="matrix(0.0075,0,0,-0.0075,696.5,164)"/>
  <path fill="#52524E" d="M249 0 64 516H145L219 300L299 67H303L383 300L457 516H536L351 0Z" transform="matrix(0.0075,0,0,-0.0075,701.0,164)"/>
  <path fill="#52524E" d="M309 -12Q253 -12 208.5 7.0Q164 26 132.5 61.5Q101 97 84.0 146.5Q67 196 67 257Q67 319 84.5 369.0Q102 419 133.0 454.5Q164 490 207.5 509.0Q251 528 304 528Q356 528 398.5 509.0Q441 490 471.0 456.5Q501 423 517.0 377.0Q533 331 533 276V238H151V214Q151 180 162.0 151.0Q173 122 193.5 101.0Q214 80 243.5 68.5Q273 57 309 57Q361 57 399.0 81.0Q437 105 457 147L516 107Q493 55 439.5 21.5Q386 -12 309 -12ZM304 462Q271 462 243.0 450.0Q215 438 194.5 417.0Q174 396 162.5 367.5Q151 339 151 305V298H447V309Q447 343 436.5 371.0Q426 399 407.5 419.5Q389 440 362.5 451.0Q336 462 304 462Z" transform="matrix(0.0075,0,0,-0.0075,705.5,164)"/>
  <path fill="#52524E" d="M98 0V516H178V432H182Q190 451 202.0 468.5Q214 486 231.5 499.0Q249 512 273.0 520.0Q297 528 329 528Q410 528 459.0 476.5Q508 425 508 331V0H428V317Q428 388 397.0 422.5Q366 457 306 457Q282 457 259.0 451.0Q236 445 218.0 433.0Q200 421 189.0 402.0Q178 383 178 358V0Z" transform="matrix(0.0075,0,0,-0.0075,710.0,164)"/>
  <path fill="#52524E" d="M325 0Q266 0 238.5 33.0Q211 66 211 118V448H39V516H167Q193 516 203.5 526.5Q214 537 214 563V698H291V516H526V448H291V68H526V0Z" transform="matrix(0.0075,0,0,-0.0075,714.5,164)"/>
  <rect x="334" y="219" width="140" height="54" fill="#F2F2EE" stroke="#111110" stroke-width="1"/>
  <path fill="#111110" d="M163 588H156V0H80V698H199L437 110H444V698H520V0H401Z" transform="matrix(0.0085,0,0,-0.0085,342,234)"/>
  <path fill="#111110" d="M481 0 422 199H177L118 0H31L245 698H356L570 0ZM304 609H295L197 272H402Z" transform="matrix(0.0085,0,0,-0.0085,347.1,234)"/>
  <path fill="#111110" d="M174 0H90V698H344Q441 698 492.0 645.0Q543 592 543 497Q543 412 499.0 361.0Q455 310 371 302L549 0H455L285 298H174ZM342 369Q395 369 424.5 395.5Q454 422 454 471V523Q454 572 424.5 598.5Q395 625 342 625H174V369Z" transform="matrix(0.0085,0,0,-0.0085,352.2,234)"/>
  <path fill="#111110" d="M174 0H90V698H344Q441 698 492.0 645.0Q543 592 543 497Q543 412 499.0 361.0Q455 310 371 302L549 0H455L285 298H174ZM342 369Q395 369 424.5 395.5Q454 422 454 471V523Q454 572 424.5 598.5Q395 625 342 625H174V369Z" transform="matrix(0.0085,0,0,-0.0085,357.3,234)"/>
  <path fill="#111110" d="M481 0 422 199H177L118 0H31L245 698H356L570 0ZM304 609H295L197 272H402Z" transform="matrix(0.0085,0,0,-0.0085,362.4,234)"/>
  <path fill="#111110" d="M342 625V0H258V625H25V698H575V625Z" transform="matrix(0.0085,0,0,-0.0085,367.5,234)"/>
  <path fill="#111110" d="M84 0V67H258V631H84V698H516V631H342V67H516V0Z" transform="matrix(0.0085,0,0,-0.0085,372.6,234)"/>
  <path fill="#111110" d="M243 0 36 698H125L224 349L299 85H304L379 349L478 698H564L357 0Z" transform="matrix(0.0085,0,0,-0.0085,377.7,234)"/>
  <path fill="#111110" d="M90 0V698H520V625H174V390H508V317H174V73H520V0Z" transform="matrix(0.0085,0,0,-0.0085,382.8,234)"/>
  <path fill="#52524E" d="M120 0V698H204V73H535V0Z" transform="matrix(0.0075,0,0,-0.0075,342,249)"/>
  <path fill="#52524E" d="M120 0V698H204V73H535V0Z" transform="matrix(0.0075,0,0,-0.0075,346.5,249)"/>
  <path fill="#52524E" d="M455 350V571H447L300 212L153 571H145V350V0H68V698H176L299 390H305L428 698H532V0H455Z" transform="matrix(0.0075,0,0,-0.0075,351.0,249)"/>
  <path fill="#52524E" d="M306 -12Q225 -12 166.5 15.5Q108 43 67 89L121 136Q158 97 202.0 76.0Q246 55 308 55Q368 55 406.5 76.5Q445 98 445 144Q445 164 437.5 177.5Q430 191 417.0 199.0Q404 207 388.0 211.5Q372 216 354 219L273 231Q246 235 214.5 242.0Q183 249 157.0 264.5Q131 280 113.5 306.0Q96 332 96 374Q96 413 111.5 441.5Q127 470 155.0 489.5Q183 509 221.0 518.5Q259 528 304 528Q374 528 425.5 506.0Q477 484 514 445L462 396Q453 407 439.5 418.5Q426 430 406.5 439.5Q387 449 361.0 455.0Q335 461 301 461Q240 461 207.5 440.0Q175 419 175 379Q175 359 182.5 345.5Q190 332 203.0 324.0Q216 316 232.5 311.5Q249 307 266 304L347 292Q375 288 406.0 281.0Q437 274 463.0 258.5Q489 243 506.5 217.0Q524 191 524 149Q524 72 464.5 30.0Q405 -12 306 -12Z" transform="matrix(0.0075,0,0,-0.0075,360.0,249)"/>
  <path fill="#52524E" d="M422 84H418Q410 65 398.0 47.5Q386 30 368.5 17.0Q351 4 327.0 -4.0Q303 -12 271 -12Q190 -12 141.0 39.5Q92 91 92 185V516H172V199Q172 128 203.0 93.5Q234 59 294 59Q318 59 341.0 65.0Q364 71 382.0 83.0Q400 95 411.0 113.5Q422 132 422 158V516H502V0H422Z" transform="matrix(0.0075,0,0,-0.0075,364.5,249)"/>
  <path fill="#52524E" d="M54 0V516H128V456H132Q144 486 166.0 507.0Q188 528 231 528Q276 528 298.0 505.5Q320 483 325 447H328Q342 482 368.0 505.0Q394 528 440 528Q503 528 524.5 484.0Q546 440 546 358V0H472V345Q472 411 458.5 436.5Q445 462 409 462Q377 462 357.0 441.5Q337 421 337 379V0H263V345Q263 411 249.5 436.5Q236 462 201 462Q169 462 148.5 441.5Q128 421 128 379V0Z" transform="matrix(0.0075,0,0,-0.0075,369.0,249)"/>
  <path fill="#52524E" d="M54 0V516H128V456H132Q144 486 166.0 507.0Q188 528 231 528Q276 528 298.0 505.5Q320 483 325 447H328Q342 482 368.0 505.0Q394 528 440 528Q503 528 524.5 484.0Q546 440 546 358V0H472V345Q472 411 458.5 436.5Q445 462 409 462Q377 462 357.0 441.5Q337 421 337 379V0H263V345Q263 411 249.5 436.5Q236 462 201 462Q169 462 148.5 441.5Q128 421 128 379V0Z" transform="matrix(0.0075,0,0,-0.0075,373.5,249)"/>
  <path fill="#52524E" d="M495 0Q448 0 428.0 24.0Q408 48 403 84H398Q381 39 343.5 13.5Q306 -12 243 -12Q162 -12 114.0 30.0Q66 72 66 145Q66 217 118.5 256.0Q171 295 288 295H398V346Q398 403 366.0 431.5Q334 460 275 460Q223 460 190.0 439.5Q157 419 137 384L83 424Q93 444 110.0 463.0Q127 482 152.0 496.5Q177 511 209.0 519.5Q241 528 280 528Q371 528 424.5 482.0Q478 436 478 354V70H550V0ZM257 55Q288 55 313.5 62.5Q339 70 358.0 82.5Q377 95 387.5 112.5Q398 130 398 150V235H288Q216 235 183.0 215.0Q150 195 150 157V136Q150 96 178.5 75.5Q207 55 257 55Z" transform="matrix(0.0075,0,0,-0.0075,378.0,249)"/>
  <path fill="#52524E" d="M77 68H228V448H77V516H308V386H313Q329 447 373.5 481.5Q418 516 487 516H559V436H462Q393 436 350.5 396.0Q308 356 308 291V68H508V0H77Z" transform="matrix(0.0075,0,0,-0.0075,382.5,249)"/>
  <path fill="#52524E" d="M467 516H547L291 -113Q282 -135 271.0 -151.5Q260 -168 245.0 -178.5Q230 -189 209.0 -194.5Q188 -200 159 -200H83V-132H203L261 10L53 516H135L222 300L299 104H303L380 300Z" transform="matrix(0.0075,0,0,-0.0075,387.0,249)"/>
  <path fill="#52524E" d="M306 -12Q225 -12 166.5 15.5Q108 43 67 89L121 136Q158 97 202.0 76.0Q246 55 308 55Q368 55 406.5 76.5Q445 98 445 144Q445 164 437.5 177.5Q430 191 417.0 199.0Q404 207 388.0 211.5Q372 216 354 219L273 231Q246 235 214.5 242.0Q183 249 157.0 264.5Q131 280 113.5 306.0Q96 332 96 374Q96 413 111.5 441.5Q127 470 155.0 489.5Q183 509 221.0 518.5Q259 528 304 528Q374 528 425.5 506.0Q477 484 514 445L462 396Q453 407 439.5 418.5Q426 430 406.5 439.5Q387 449 361.0 455.0Q335 461 301 461Q240 461 207.5 440.0Q175 419 175 379Q175 359 182.5 345.5Q190 332 203.0 324.0Q216 316 232.5 311.5Q249 307 266 304L347 292Q375 288 406.0 281.0Q437 274 463.0 258.5Q489 243 506.5 217.0Q524 191 524 149Q524 72 464.5 30.0Q405 -12 306 -12Z" transform="matrix(0.0075,0,0,-0.0075,342,260)"/>
  <path fill="#52524E" d="M98 740H178V432H182Q190 451 202.0 468.5Q214 486 231.5 499.0Q249 512 273.0 520.0Q297 528 329 528Q410 528 459.0 476.5Q508 425 508 331V0H428V317Q428 388 397.0 422.5Q366 457 306 457Q282 457 259.0 451.0Q236 445 218.0 433.0Q200 421 189.0 402.0Q178 383 178 358V0H98Z" transform="matrix(0.0075,0,0,-0.0075,346.5,260)"/>
  <path fill="#52524E" d="M300 -12Q246 -12 202.5 7.0Q159 26 128.5 61.5Q98 97 82.0 146.5Q66 196 66 258Q66 319 82.0 369.0Q98 419 128.5 454.5Q159 490 202.5 509.0Q246 528 300 528Q354 528 397.5 509.0Q441 490 471.5 454.5Q502 419 518.0 369.0Q534 319 534 258Q534 196 518.0 146.5Q502 97 471.5 61.5Q441 26 397.5 7.0Q354 -12 300 -12ZM300 57Q367 57 408.0 97.0Q449 137 449 221V295Q449 379 408.0 419.0Q367 459 300 459Q233 459 192.0 419.0Q151 379 151 295V221Q151 137 192.0 97.0Q233 57 300 57Z" transform="matrix(0.0075,0,0,-0.0075,351.0,260)"/>
  <path fill="#52524E" d="M77 68H228V448H77V516H308V386H313Q329 447 373.5 481.5Q418 516 487 516H559V436H462Q393 436 350.5 396.0Q308 356 308 291V68H508V0H77Z" transform="matrix(0.0075,0,0,-0.0075,355.5,260)"/>
  <path fill="#52524E" d="M325 0Q266 0 238.5 33.0Q211 66 211 118V448H39V516H167Q193 516 203.5 526.5Q214 537 214 563V698H291V516H526V448H291V68H526V0Z" transform="matrix(0.0075,0,0,-0.0075,360.0,260)"/>
  <path fill="#52524E" d="M262 62V271H62V339H262V548H338V339H538V271H338V62Z" transform="matrix(0.0075,0,0,-0.0075,369.0,260)"/>
  <path fill="#52524E" d="M495 0Q448 0 428.0 24.0Q408 48 403 84H398Q381 39 343.5 13.5Q306 -12 243 -12Q162 -12 114.0 30.0Q66 72 66 145Q66 217 118.5 256.0Q171 295 288 295H398V346Q398 403 366.0 431.5Q334 460 275 460Q223 460 190.0 439.5Q157 419 137 384L83 424Q93 444 110.0 463.0Q127 482 152.0 496.5Q177 511 209.0 519.5Q241 528 280 528Q371 528 424.5 482.0Q478 436 478 354V70H550V0ZM257 55Q288 55 313.5 62.5Q339 70 358.0 82.5Q377 95 387.5 112.5Q398 130 398 150V235H288Q216 235 183.0 215.0Q150 195 150 157V136Q150 96 178.5 75.5Q207 55 257 55Z" transform="matrix(0.0075,0,0,-0.0075,378.0,260)"/>
  <path fill="#52524E" d="M318 -12Q262 -12 218.5 7.5Q175 27 145.0 62.0Q115 97 99.5 147.0Q84 197 84 258Q84 319 100.0 369.0Q116 419 146.0 454.5Q176 490 219.0 509.0Q262 528 317 528Q392 528 439.0 495.0Q486 462 508 409L444 375Q430 415 397.5 437.0Q365 459 317 459Q282 459 254.5 447.5Q227 436 208.0 415.0Q189 394 179.5 365.0Q170 336 170 302V214Q170 180 179.5 151.0Q189 122 208.0 101.0Q227 80 255.0 68.5Q283 57 319 57Q371 57 405.0 81.0Q439 105 459 147L516 108Q493 56 444.5 22.0Q396 -12 318 -12Z" transform="matrix(0.0075,0,0,-0.0075,382.5,260)"/>
  <path fill="#52524E" d="M325 0Q266 0 238.5 33.0Q211 66 211 118V448H39V516H167Q193 516 203.5 526.5Q214 537 214 563V698H291V516H526V448H291V68H526V0Z" transform="matrix(0.0075,0,0,-0.0075,387.0,260)"/>
  <path fill="#52524E" d="M332 630Q297 630 283.0 644.5Q269 659 269 681V697Q269 719 283.0 733.5Q297 748 332 748Q367 748 381.0 733.5Q395 719 395 697V681Q395 659 381.0 644.5Q367 630 332 630ZM106 68H292V448H106V516H372V68H546V0H106Z" transform="matrix(0.0075,0,0,-0.0075,391.5,260)"/>
  <path fill="#52524E" d="M300 -12Q246 -12 202.5 7.0Q159 26 128.5 61.5Q98 97 82.0 146.5Q66 196 66 258Q66 319 82.0 369.0Q98 419 128.5 454.5Q159 490 202.5 509.0Q246 528 300 528Q354 528 397.5 509.0Q441 490 471.5 454.5Q502 419 518.0 369.0Q534 319 534 258Q534 196 518.0 146.5Q502 97 471.5 61.5Q441 26 397.5 7.0Q354 -12 300 -12ZM300 57Q367 57 408.0 97.0Q449 137 449 221V295Q449 379 408.0 419.0Q367 459 300 459Q233 459 192.0 419.0Q151 379 151 295V221Q151 137 192.0 97.0Q233 57 300 57Z" transform="matrix(0.0075,0,0,-0.0075,396.0,260)"/>
  <path fill="#52524E" d="M98 0V516H178V432H182Q190 451 202.0 468.5Q214 486 231.5 499.0Q249 512 273.0 520.0Q297 528 329 528Q410 528 459.0 476.5Q508 425 508 331V0H428V317Q428 388 397.0 422.5Q366 457 306 457Q282 457 259.0 451.0Q236 445 218.0 433.0Q200 421 189.0 402.0Q178 383 178 358V0Z" transform="matrix(0.0075,0,0,-0.0075,400.5,260)"/>
  <path fill="#52524E" d="M306 -12Q225 -12 166.5 15.5Q108 43 67 89L121 136Q158 97 202.0 76.0Q246 55 308 55Q368 55 406.5 76.5Q445 98 445 144Q445 164 437.5 177.5Q430 191 417.0 199.0Q404 207 388.0 211.5Q372 216 354 219L273 231Q246 235 214.5 242.0Q183 249 157.0 264.5Q131 280 113.5 306.0Q96 332 96 374Q96 413 111.5 441.5Q127 470 155.0 489.5Q183 509 221.0 518.5Q259 528 304 528Q374 528 425.5 506.0Q477 484 514 445L462 396Q453 407 439.5 418.5Q426 430 406.5 439.5Q387 449 361.0 455.0Q335 461 301 461Q240 461 207.5 440.0Q175 419 175 379Q175 359 182.5 345.5Q190 332 203.0 324.0Q216 316 232.5 311.5Q249 307 266 304L347 292Q375 288 406.0 281.0Q437 274 463.0 258.5Q489 243 506.5 217.0Q524 191 524 149Q524 72 464.5 30.0Q405 -12 306 -12Z" transform="matrix(0.0075,0,0,-0.0075,405.0,260)"/>
  <line x1="122" y1="155" x2="151" y2="155" stroke="#111110" stroke-width="1"/>
  <polygon points="158,155 152,152 152,158" fill="#111110"/>
  <line x1="298" y1="155" x2="327" y2="155" stroke="#111110" stroke-width="1"/>
  <polygon points="334,155 328,152 328,158" fill="#111110"/>
  <line x1="474" y1="155" x2="503" y2="155" stroke="#111110" stroke-width="1"/>
  <polygon points="510,155 504,152 504,158" fill="#111110"/>
  <line x1="630" y1="155" x2="659" y2="155" stroke="#111110" stroke-width="1"/>
  <polygon points="666,155 660,152 660,158" fill="#111110"/>
  <line x1="404" y1="187" x2="404" y2="212" stroke="#111110" stroke-width="1"/>
  <polygon points="404,219 401,213 407,213" fill="#111110"/>
</svg>