<svg xmlns="http://www.w3.org/2000/svg" viewBox="0 0 560 96" width="560" height="96">
  <line x1="0" y1="64" x2="14" y2="64" stroke="#111110" stroke-width="1"/>
<rect x="14" y="32" width="3" height="32" fill="#1A9E55"/>
<rect x="26" y="32" width="3" height="32" fill="#C7860A"/>
<rect x="38" y="32" width="3" height="32" fill="#D43B3B"/>
<line x1="43" y1="64" x2="53" y2="64" stroke="#111110" stroke-width="1"/>
  <path fill="#111110" d="M152 0V392H26V496H152V588Q152 639 182.5 669.5Q213 700 262 700H392V596H306Q278 596 278 566V496H408V392H278V0Z" transform="matrix(0.046,0,0,-0.046,63,64)"/>
  <path fill="#111110" d="M70 0V700H196V0Z" transform="matrix(0.046,0,0,-0.046,83.056,64)"/>
  <path fill="#111110" d="M70 0V496H196V0ZM133 554Q99 554 75.5 576.0Q52 598 52 634Q52 670 75.5 692.0Q99 714 133 714Q168 714 191.0 692.0Q214 670 214 634Q214 598 191.0 576.0Q168 554 133 554Z" transform="matrix(0.046,0,0,-0.046,95.292,64)"/>
  <path fill="#111110" d="M46 246V262Q46 340 77.0 395.5Q108 451 159.5 480.5Q211 510 272 510Q340 510 375.0 486.0Q410 462 426 436H444V496H568V-88Q568 -139 538.0 -169.5Q508 -200 458 -200H126V-90H414Q442 -90 442 -60V69H424Q414 53 396.0 36.5Q378 20 348.0 9.0Q318 -2 272 -2Q211 -2 159.5 27.5Q108 57 77.0 112.5Q46 168 46 246ZM308 108Q366 108 405.0 145.0Q444 182 444 249V259Q444 327 405.5 363.5Q367 400 308 400Q250 400 211.0 363.5Q172 327 172 259V249Q172 182 211.0 145.0Q250 108 308 108Z" transform="matrix(0.046,0,0,-0.046,107.528,64)"/>
  <path fill="#111110" d="M70 0V700H196V435H214Q222 451 239.0 467.0Q256 483 284.5 493.5Q313 504 357 504Q415 504 458.5 477.5Q502 451 526.0 404.5Q550 358 550 296V0H424V286Q424 342 396.5 370.0Q369 398 318 398Q260 398 228.0 359.5Q196 321 196 252V0Z" transform="matrix(0.046,0,0,-0.046,136.876,64)"/>
  <path fill="#111110" d="M260 0Q211 0 180.5 30.5Q150 61 150 112V392H26V496H150V650H276V496H412V392H276V134Q276 104 304 104H400V0Z" transform="matrix(0.046,0,0,-0.046,165.212,64)"/>
  <path fill="#111110" d="M70 0V496H194V440H212Q223 470 248.5 484.0Q274 498 308 498H368V386H306Q258 386 227.0 360.5Q196 335 196 282V0Z" transform="matrix(0.046,0,0,-0.046,186.188,64)"/>
  <path fill="#111110" d="M296 -14Q222 -14 165.5 17.5Q109 49 77.5 106.5Q46 164 46 242V254Q46 332 77.0 389.5Q108 447 164.0 478.5Q220 510 294 510Q367 510 421.0 477.5Q475 445 505.0 387.5Q535 330 535 254V211H174Q176 160 212.0 128.0Q248 96 300 96Q353 96 378.0 119.0Q403 142 416 170L519 116Q505 90 478.5 59.5Q452 29 408.0 7.5Q364 -14 296 -14ZM175 305H407Q403 348 372.5 374.0Q342 400 293 400Q242 400 212.0 374.0Q182 348 175 305Z" transform="matrix(0.046,0,0,-0.046,204.404,64)"/>
  <path fill="#111110" d="M303 -14Q231 -14 172.5 16.0Q114 46 80.0 103.0Q46 160 46 241V255Q46 336 80.0 393.0Q114 450 172.5 480.0Q231 510 303 510Q374 510 425.0 485.0Q476 460 507.5 416.5Q539 373 549 318L427 292Q423 322 409.0 346.0Q395 370 369.5 384.0Q344 398 306 398Q268 398 237.5 381.5Q207 365 189.5 332.5Q172 300 172 253V243Q172 196 189.5 163.5Q207 131 237.5 114.5Q268 98 306 98Q363 98 392.5 127.5Q422 157 430 205L552 176Q539 123 507.5 79.5Q476 36 425.0 11.0Q374 -14 303 -14Z" transform="matrix(0.046,0,0,-0.046,230.946,64)"/>
  <path fill="#111110" d="M83 68H257V448H73V516H257V622Q257 674 284.5 707.0Q312 740 371 740H544V672H337V516H544V448H337V68H521V0H83Z" transform="matrix(0.011,0,0,-0.011,63,81)"/>
  <path fill="#111110" d="M332 630Q297 630 283.0 644.5Q269 659 269 681V697Q269 719 283.0 733.5Q297 748 332 748Q367 748 381.0 733.5Q395 719 395 697V681Q395 659 381.0 644.5Q367 630 332 630ZM106 68H292V448H106V516H372V68H546V0H106Z" transform="matrix(0.011,0,0,-0.011,69.6,81)"/>
  <path fill="#111110" d="M80 68H260V672H80V740H340V68H520V0H80Z" transform="matrix(0.011,0,0,-0.011,76.2,81)"/>
  <path fill="#111110" d="M309 -12Q253 -12 208.5 7.0Q164 26 132.5 61.5Q101 97 84.0 146.5Q67 196 67 257Q67 319 84.5 369.0Q102 419 133.0 454.5Q164 490 207.5 509.0Q251 528 304 528Q356 528 398.5 509.0Q441 490 471.0 456.5Q501 423 517.0 377.0Q533 331 533 276V238H151V214Q151 180 162.0 151.0Q173 122 193.5 101.0Q214 80 243.5 68.5Q273 57 309 57Q361 57 399.0 81.0Q437 105 457 147L516 107Q493 55 439.5 21.5Q386 -12 309 -12ZM304 462Q271 462 243.0 450.0Q215 438 194.5 417.0Q174 396 162.5 367.5Q151 339 151 305V298H447V309Q447 343 436.5 371.0Q426 399 407.5 419.5Q389 440 362.5 451.0Q336 462 304 462Z" transform="matrix(0.011,0,0,-0.011,82.8,81)"/>
  <path fill="#111110" d="M306 -12Q225 -12 166.5 15.5Q108 43 67 89L121 136Q158 97 202.0 76.0Q246 55 308 55Q368 55 406.5 76.5Q445 98 445 144Q445 164 437.5 177.5Q430 191 417.0 199.0Q404 207 388.0 211.5Q372 216 354 219L273 231Q246 235 214.5 242.0Q183 249 157.0 264.5Q131 280 113.5 306.0Q96 332 96 374Q96 413 111.5 441.5Q127 470 155.0 489.5Q183 509 221.0 518.5Q259 528 304 528Q374 528 425.5 506.0Q477 484 514 445L462 396Q453 407 439.5 418.5Q426 430 406.5 439.5Q387 449 361.0 455.0Q335 461 301 461Q240 461 207.5 440.0Q175 419 175 379Q175 359 182.5 345.5Q190 332 203.0 324.0Q216 316 232.5 311.5Q249 307 266 304L347 292Q375 288 406.0 281.0Q437 274 463.0 258.5Q489 243 506.5 217.0Q524 191 524 149Q524 72 464.5 30.0Q405 -12 306 -12Z" transform="matrix(0.011,0,0,-0.011,89.4,81)"/>
  <path fill="#111110" d="M467 516H547L291 -113Q282 -135 271.0 -151.5Q260 -168 245.0 -178.5Q230 -189 209.0 -194.5Q188 -200 159 -200H83V-132H203L261 10L53 516H135L222 300L299 104H303L380 300Z" transform="matrix(0.011,0,0,-0.011,96.0,81)"/>
  <path fill="#111110" d="M306 -12Q225 -12 166.5 15.5Q108 43 67 89L121 136Q158 97 202.0 76.0Q246 55 308 55Q368 55 406.5 76.5Q445 98 445 144Q445 164 437.5 177.5Q430 191 417.0 199.0Q404 207 388.0 211.5Q372 216 354 219L273 231Q246 235 214.5 242.0Q183 249 157.0 264.5Q131 280 113.5 306.0Q96 332 96 374Q96 413 111.5 441.5Q127 470 155.0 489.5Q183 509 221.0 518.5Q259 528 304 528Q374 528 425.5 506.0Q477 484 514 445L462 396Q453 407 439.5 418.5Q426 430 406.5 439.5Q387 449 361.0 455.0Q335 461 301 461Q240 461 207.5 440.0Q175 419 175 379Q175 359 182.5 345.5Q190 332 203.0 324.0Q216 316 232.5 311.5Q249 307 266 304L347 292Q375 288 406.0 281.0Q437 274 463.0 258.5Q489 243 506.5 217.0Q524 191 524 149Q524 72 464.5 30.0Q405 -12 306 -12Z" transform="matrix(0.011,0,0,-0.011,102.6,81)"/>
  <path fill="#111110" d="M325 0Q266 0 238.5 33.0Q211 66 211 118V448H39V516H167Q193 516 203.5 526.5Q214 537 214 563V698H291V516H526V448H291V68H526V0Z" transform="matrix(0.011,0,0,-0.011,109.2,81)"/>
  <path fill="#111110" d="M309 -12Q253 -12 208.5 7.0Q164 26 132.5 61.5Q101 97 84.0 146.5Q67 196 67 257Q67 319 84.5 369.0Q102 419 133.0 454.5Q164 490 207.5 509.0Q251 528 304 528Q356 528 398.5 509.0Q441 490 471.0 456.5Q501 423 517.0 377.0Q533 331 533 276V238H151V214Q151 180 162.0 151.0Q173 122 193.5 101.0Q214 80 243.5 68.5Q273 57 309 57Q361 57 399.0 81.0Q437 105 457 147L516 107Q493 55 439.5 21.5Q386 -12 309 -12ZM304 462Q271 462 243.0 450.0Q215 438 194.5 417.0Q174 396 162.5 367.5Q151 339 151 305V298H447V309Q447 343 436.5 371.0Q426 399 407.5 419.5Q389 440 362.5 451.0Q336 462 304 462Z" transform="matrix(0.011,0,0,-0.011,115.8,81)"/>
  <path fill="#111110" d="M54 0V516H128V456H132Q144 486 166.0 507.0Q188 528 231 528Q276 528 298.0 505.5Q320 483 325 447H328Q342 482 368.0 505.0Q394 528 440 528Q503 528 524.5 484.0Q546 440 546 358V0H472V345Q472 411 458.5 436.5Q445 462 409 462Q377 462 357.0 441.5Q337 421 337 379V0H263V345Q263 411 249.5 436.5Q236 462 201 462Q169 462 148.5 441.5Q128 421 128 379V0Z" transform="matrix(0.011,0,0,-0.011,122.4,81)"/>
  <path fill="#111110" d="M300 -12Q246 -12 202.5 7.0Q159 26 128.5 61.5Q98 97 82.0 146.5Q66 196 66 258Q66 319 82.0 369.0Q98 419 128.5 454.5Q159 490 202.5 509.0Q246 528 300 528Q354 528 397.5 509.0Q441 490 471.5 454.5Q502 419 518.0 369.0Q534 319 534 258Q534 196 518.0 146.5Q502 97 471.5 61.5Q441 26 397.5 7.0Q354 -12 300 -12ZM300 57Q367 57 408.0 97.0Q449 137 449 221V295Q449 379 408.0 419.0Q367 459 300 459Q233 459 192.0 419.0Q151 379 151 295V221Q151 137 192.0 97.0Q233 57 300 57Z" transform="matrix(0.011,0,0,-0.011,135.6,81)"/>
  <path fill="#111110" d="M95 740H175V432H179Q229 528 338 528Q433 528 486.5 457.0Q540 386 540 258Q540 130 486.5 59.0Q433 -12 338 -12Q229 -12 179 84H175V0H95ZM307 59Q377 59 415.5 101.5Q454 144 454 214V302Q454 372 415.5 414.5Q377 457 307 457Q280 457 256.0 450.0Q232 443 214.0 429.5Q196 416 185.5 396.5Q175 377 175 351V165Q175 139 185.5 119.5Q196 100 214.0 86.5Q232 73 256.0 66.0Q280 59 307 59Z" transform="matrix(0.011,0,0,-0.011,142.2,81)"/>
  <path fill="#111110" d="M306 -12Q225 -12 166.5 15.5Q108 43 67 89L121 136Q158 97 202.0 76.0Q246 55 308 55Q368 55 406.5 76.5Q445 98 445 144Q445 164 437.5 177.5Q430 191 417.0 199.0Q404 207 388.0 211.5Q372 216 354 219L273 231Q246 235 214.5 242.0Q183 249 157.0 264.5Q131 280 113.5 306.0Q96 332 96 374Q96 413 111.5 441.5Q127 470 155.0 489.5Q183 509 221.0 518.5Q259 528 304 528Q374 528 425.5 506.0Q477 484 514 445L462 396Q453 407 439.5 418.5Q426 430 406.5 439.5Q387 449 361.0 455.0Q335 461 301 461Q240 461 207.5 440.0Q175 419 175 379Q175 359 182.5 345.5Q190 332 203.0 324.0Q216 316 232.5 311.5Q249 307 266 304L347 292Q375 288 406.0 281.0Q437 274 463.0 258.5Q489 243 506.5 217.0Q524 191 524 149Q524 72 464.5 30.0Q405 -12 306 -12Z" transform="matrix(0.011,0,0,-0.011,148.8,81)"/>
  <path fill="#111110" d="M309 -12Q253 -12 208.5 7.0Q164 26 132.5 61.5Q101 97 84.0 146.5Q67 196 67 257Q67 319 84.5 369.0Q102 419 133.0 454.5Q164 490 207.5 509.0Q251 528 304 528Q356 528 398.5 509.0Q441 490 471.0 456.5Q501 423 517.0 377.0Q533 331 533 276V238H151V214Q151 180 162.0 151.0Q173 122 193.5 101.0Q214 80 243.5 68.5Q273 57 309 57Q361 57 399.0 81.0Q437 105 457 147L516 107Q493 55 439.5 21.5Q386 -12 309 -12ZM304 462Q271 462 243.0 450.0Q215 438 194.5 417.0Q174 396 162.5 367.5Q151 339 151 305V298H447V309Q447 343 436.5 371.0Q426 399 407.5 419.5Q389 440 362.5 451.0Q336 462 304 462Z" transform="matrix(0.011,0,0,-0.011,155.4,81)"/>
  <path fill="#111110" d="M77 68H228V448H77V516H308V386H313Q329 447 373.5 481.5Q418 516 487 516H559V436H462Q393 436 350.5 396.0Q308 356 308 291V68H508V0H77Z" transform="matrix(0.011,0,0,-0.011,162.0,81)"/>
  <path fill="#111110" d="M249 0 64 516H145L219 300L299 67H303L383 300L457 516H536L351 0Z" transform="matrix(0.011,0,0,-0.011,168.6,81)"/>
  <path fill="#111110" d="M495 0Q448 0 428.0 24.0Q408 48 403 84H398Q381 39 343.5 13.5Q306 -12 243 -12Q162 -12 114.0 30.0Q66 72 66 145Q66 217 118.5 256.0Q171 295 288 295H398V346Q398 403 366.0 431.5Q334 460 275 460Q223 460 190.0 439.5Q157 419 137 384L83 424Q93 444 110.0 463.0Q127 482 152.0 496.5Q177 511 209.0 519.5Q241 528 280 528Q371 528 424.5 482.0Q478 436 478 354V70H550V0ZM257 55Q288 55 313.5 62.5Q339 70 358.0 82.5Q377 95 387.5 112.5Q398 130 398 150V235H288Q216 235 183.0 215.0Q150 195 150 157V136Q150 96 178.5 75.5Q207 55 257 55Z" transform="matrix(0.011,0,0,-0.011,175.2,81)"/>
  <path fill="#111110" d="M95 740H175V432H179Q229 528 338 528Q433 528 486.5 457.0Q540 386 540 258Q540 130 486.5 59.0Q433 -12 338 -12Q229 -12 179 84H175V0H95ZM307 59Q377 59 415.5 101.5Q454 144 454 214V302Q454 372 415.5 414.5Q377 457 307 457Q280 457 256.0 450.0Q232 443 214.0 429.5Q196 416 185.5 396.5Q175 377 175 351V165Q175 139 185.5 119.5Q196 100 214.0 86.5Q232 73 256.0 66.0Q280 59 307 59Z" transform="matrix(0.011,0,0,-0.011,181.8,81)"/>
  <path fill="#111110" d="M332 630Q297 630 283.0 644.5Q269 659 269 681V697Q269 719 283.0 733.5Q297 748 332 748Q367 748 381.0 733.5Q395 719 395 697V681Q395 659 381.0 644.5Q367 630 332 630ZM106 68H292V448H106V516H372V68H546V0H106Z" transform="matrix(0.011,0,0,-0.011,188.4,81)"/>
  <path fill="#111110" d="M80 68H260V672H80V740H340V68H520V0H80Z" transform="matrix(0.011,0,0,-0.011,195.0,81)"/>
  <path fill="#111110" d="M332 630Q297 630 283.0 644.5Q269 659 269 681V697Q269 719 283.0 733.5Q297 748 332 748Q367 748 381.0 733.5Q395 719 395 697V681Q395 659 381.0 644.5Q367 630 332 630ZM106 68H292V448H106V516H372V68H546V0H106Z" transform="matrix(0.011,0,0,-0.011,201.6,81)"/>
  <path fill="#111110" d="M325 0Q266 0 238.5 33.0Q211 66 211 118V448H39V516H167Q193 516 203.5 526.5Q214 537 214 563V698H291V516H526V448H291V68H526V0Z" transform="matrix(0.011,0,0,-0.011,208.2,81)"/>
  <path fill="#111110" d="M467 516H547L291 -113Q282 -135 271.0 -151.5Q260 -168 245.0 -178.5Q230 -189 209.0 -194.5Q188 -200 159 -200H83V-132H203L261 10L53 516H135L222 300L299 104H303L380 300Z" transform="matrix(0.011,0,0,-0.011,214.8,81)"/>
  <path fill="#111110" d="M83 68H257V448H73V516H257V622Q257 674 284.5 707.0Q312 740 371 740H544V672H337V516H544V448H337V68H521V0H83Z" transform="matrix(0.011,0,0,-0.011,228.0,81)"/>
  <path fill="#111110" d="M300 -12Q246 -12 202.5 7.0Q159 26 128.5 61.5Q98 97 82.0 146.5Q66 196 66 258Q66 319 82.0 369.0Q98 419 128.5 454.5Q159 490 202.5 509.0Q246 528 300 528Q354 528 397.5 509.0Q441 490 471.5 454.5Q502 419 518.0 369.0Q534 319 534 258Q534 196 518.0 146.5Q502 97 471.5 61.5Q441 26 397.5 7.0Q354 -12 300 -12ZM300 57Q367 57 408.0 97.0Q449 137 449 221V295Q449 379 408.0 419.0Q367 459 300 459Q233 459 192.0 419.0Q151 379 151 295V221Q151 137 192.0 97.0Q233 57 300 57Z" transform="matrix(0.011,0,0,-0.011,234.6,81)"/>
  <path fill="#111110" d="M77 68H228V448H77V516H308V386H313Q329 447 373.5 481.5Q418 516 487 516H559V436H462Q393 436 350.5 396.0Q308 356 308 291V68H508V0H77Z" transform="matrix(0.011,0,0,-0.011,241.2,81)"/>
  <path fill="#111110" d="M481 0 422 199H177L118 0H31L245 698H356L570 0ZM304 609H295L197 272H402Z" transform="matrix(0.011,0,0,-0.011,254.4,81)"/>
  <path fill="#111110" d="M84 0V67H258V631H84V698H516V631H342V67H516V0Z" transform="matrix(0.011,0,0,-0.011,261.0,81)"/>
  <path fill="#111110" d="M495 0Q448 0 428.0 24.0Q408 48 403 84H398Q381 39 343.5 13.5Q306 -12 243 -12Q162 -12 114.0 30.0Q66 72 66 145Q66 217 118.5 256.0Q171 295 288 295H398V346Q398 403 366.0 431.5Q334 460 275 460Q223 460 190.0 439.5Q157 419 137 384L83 424Q93 444 110.0 463.0Q127 482 152.0 496.5Q177 511 209.0 519.5Q241 528 280 528Q371 528 424.5 482.0Q478 436 478 354V70H550V0ZM257 55Q288 55 313.5 62.5Q339 70 358.0 82.5Q377 95 387.5 112.5Q398 130 398 150V235H288Q216 235 183.0 215.0Q150 195 150 157V136Q150 96 178.5 75.5Q207 55 257 55Z" transform="matrix(0.011,0,0,-0.011,274.2,81)"/>
  <path fill="#111110" d="M561 -59Q561 -137 496.0 -174.5Q431 -212 301 -212Q176 -212 121.5 -179.0Q67 -146 67 -84Q67 -42 89.0 -19.0Q111 4 151 15V27Q129 38 117.0 55.0Q105 72 105 98Q105 138 131.5 158.0Q158 178 198 188V192Q150 213 123.5 254.0Q97 295 97 350Q97 389 111.0 422.0Q125 455 151.5 478.5Q178 502 215.0 515.0Q252 528 297 528Q355 528 399 507V516Q399 546 413.0 566.0Q427 586 461 586H556V516H440V481Q468 457 483.0 424.0Q498 391 498 350Q498 311 483.5 278.0Q469 245 443.0 221.5Q417 198 379.5 185.0Q342 172 297 172Q284 172 272.0 173.0Q260 174 248 176Q236 174 223.0 169.5Q210 165 199.0 157.5Q188 150 181.0 140.0Q174 130 174 117Q174 94 197.0 86.5Q220 79 257 79H371Q471 79 516.0 41.5Q561 4 561 -59ZM486 -63Q486 -32 461.0 -13.5Q436 5 374 5H195Q143 -16 143 -65Q143 -99 170.0 -123.5Q197 -148 260 -148H338Q408 -148 447.0 -126.5Q486 -105 486 -63ZM297 234Q357 234 385.5 262.0Q414 290 414 336V365Q414 411 385.5 438.5Q357 466 297 466Q237 466 209.0 438.5Q181 411 181 365V336Q181 290 209.0 262.0Q237 234 297 234Z" transform="matrix(0.011,0,0,-0.011,280.8,81)"/>
  <path fill="#111110" d="M309 -12Q253 -12 208.5 7.0Q164 26 132.5 61.5Q101 97 84.0 146.5Q67 196 67 257Q67 319 84.5 369.0Q102 419 133.0 454.5Q164 490 207.5 509.0Q251 528 304 528Q356 528 398.5 509.0Q441 490 471.0 456.5Q501 423 517.0 377.0Q533 331 533 276V238H151V214Q151 180 162.0 151.0Q173 122 193.5 101.0Q214 80 243.5 68.5Q273 57 309 57Q361 57 399.0 81.0Q437 105 457 147L516 107Q493 55 439.5 21.5Q386 -12 309 -12ZM304 462Q271 462 243.0 450.0Q215 438 194.5 417.0Q174 396 162.5 367.5Q151 339 151 305V298H447V309Q447 343 436.5 371.0Q426 399 407.5 419.5Q389 440 362.5 451.0Q336 462 304 462Z" transform="matrix(0.011,0,0,-0.011,287.4,81)"/>
  <path fill="#111110" d="M98 0V516H178V432H182Q190 451 202.0 468.5Q214 486 231.5 499.0Q249 512 273.0 520.0Q297 528 329 528Q410 528 459.0 476.5Q508 425 508 331V0H428V317Q428 388 397.0 422.5Q366 457 306 457Q282 457 259.0 451.0Q236 445 218.0 433.0Q200 421 189.0 402.0Q178 383 178 358V0Z" transform="matrix(0.011,0,0,-0.011,294.0,81)"/>
  <path fill="#111110" d="M325 0Q266 0 238.5 33.0Q211 66 211 118V448H39V516H167Q193 516 203.5 526.5Q214 537 214 563V698H291V516H526V448H291V68H526V0Z" transform="matrix(0.011,0,0,-0.011,300.6,81)"/>
  <path fill="#111110" d="M306 -12Q225 -12 166.5 15.5Q108 43 67 89L121 136Q158 97 202.0 76.0Q246 55 308 55Q368 55 406.5 76.5Q445 98 445 144Q445 164 437.5 177.5Q430 191 417.0 199.0Q404 207 388.0 211.5Q372 216 354 219L273 231Q246 235 214.5 242.0Q183 249 157.0 264.5Q131 280 113.5 306.0Q96 332 96 374Q96 413 111.5 441.5Q127 470 155.0 489.5Q183 509 221.0 518.5Q259 528 304 528Q374 528 425.5 506.0Q477 484 514 445L462 396Q453 407 439.5 418.5Q426 430 406.5 439.5Q387 449 361.0 455.0Q335 461 301 461Q240 461 207.5 440.0Q175 419 175 379Q175 359 182.5 345.5Q190 332 203.0 324.0Q216 316 232.5 311.5Q249 307 266 304L347 292Q375 288 406.0 281.0Q437 274 463.0 258.5Q489 243 506.5 217.0Q524 191 524 149Q524 72 464.5 30.0Q405 -12 306 -12Z" transform="matrix(0.011,0,0,-0.011,307.2,81)"/>
</svg>